<svg xmlns="http://www.w3.org/2000/svg" viewBox="-17 139 976.760009765625 271.3629362250666"><rect height="100%" width="100%" x="-17" y="139" fill="rgba(255, 255, 255, 1)"/> <svg xmlns="http://www.w3.org/2000/svg" xmlns:xlink="http://www.w3.org/1999/xlink" version="1.1" id="Layer_1" x="53" y="209" viewBox="67.19999694824219 94.19985961914062 243.69984436035156 235.40020751953125" xml:space="preserve" height="131.36293622506662" width="135.99444580078125" preserveAspectRatio="xMinYMin" enable-background="new 0 0 382 426.4" style="overflow: visible;"><path class="st0" d="M118.5,299.7c-1.8-1.5-3.5-3.1-5.2-4.7c-0.2-0.2-0.4-0.4-0.6-0.6C91.3,273.5,78,244,78,211.2  C78,147.9,127.7,98,189.1,98s111.1,49.8,111.1,113.2c0,35.6-15.7,67.5-40.4,88.5c-19.2,16.4-96.8-19.5-96.8-19.5l-8.1,7l-18.2,0.4  l-17.8,3.4l-3.1,2.2L118.5,299.7z" style="fill: #FFFFFF;"></path><path class="st1" d="M190.5,96.5C128.4,96.5,78,147.9,78,211.1c0,39,5.6,60.3,34.3,81.7c2.6,1.9,7.2-2.1,13.8-2.9  c14.5-1.9,36.4-4.2,52.8-4.2c17.4,0,49.4,34,64.1,26.8c37.8-18.5,60-55.8,60-101.4C303,147.9,252.7,96.5,190.5,96.5z M299.6,228.2  l-1.1,8.2l-65.2-11.6l63.9,18.5l-1.4,5.1l-63.4-18.2l60.1,26.1l-4.4,10.6L228,236.5l55.4,37.9l-4.1,5.6l-54.6-37.5l46.4,48l-6.5,4.2  L218,245.2l32.6,51.7l-6.1,3.9l-27.2-48.2l20.9,50.7l-46.8-24.9l-15.7-2.8l-14.3,7.2l0.7-20.6l-12,24.4l-8.2,0.8l20.2-37L131,287.5  l-11.5,2l40.6-47.5l-54.5,43.1l-3-4.5l55.4-44.5l-60.7,36.6l-5.9-9.3l60.8-32.7l-64,23.3l-2-5.3l65.2-24.1L84,241l-0.8-7.6  l68.4-15.8l-70.6,1.2l1.1-11.3l68.6,1.7l-68.2-13.8l1.8-9.5l66.1,15.9l-62.9-26.4l2.1-6.6l6.5-11l58.3,35l-53.4-44l3.7-4l53.2,43.8  l-47.9-51.4l8.7-8.5l45.8,55.3l-33.7-65.5l4.5-3l26.5,49l2-1.6l-17.8-52.9l6.5-2.4l18.2,53.1l3.7,2l-10.8-58.5l3.5-0.8l7.3,36.5  l1.2-4l4.5-6.7l-0.3-28.3l15.4-0.6l-1.7,34.5l6.8,3.9l6.1-37.1l5.4,0.2l3.5,2.8l-11.6,57.3l4-0.7l21-53.2l3.9,2.1l-20.2,53.8  l2.4,1.4L239,112l6.5,4.2l-30.2,66.5l40.1-60.5l6.5,6.9l-40.1,58.3l50.5-49.5l6.9,9.8L231,191.3l52.7-37.2l5,8.6l4.3,11.6  l-59.1,27.5l62.5-17.1l2.3,8.2l-64.5,16.4l66.1-2.9v12.7l-67.4-1.7L299.6,228.2z" style="opacity: 0.6196; fill: #C4D4DC; fill-opacity: 1;"></path><path class="st2" d="M271.8,322.5c0.3,0,0.6,0,0.8-0.1c0.2,0,0.4,0,0.5-0.1c0.3,0,0.5-0.1,0.8-0.1c0.2,0,0.4,0,0.5-0.1   c0.3,0,0.5-0.1,0.8-0.1c0.2,0,0.4-0.1,0.5-0.1c0.3-0.1,0.6-0.1,0.8-0.2c0.2,0,0.3-0.1,0.5-0.1c0.3-0.1,0.6-0.1,0.9-0.2   c0.1,0,0.2-0.1,0.4-0.1c0.4-0.1,0.9-0.2,1.3-0.3c0.1,0,0.2,0,0.3-0.1c0.4-0.1,0.7-0.2,1.1-0.3c0.2,0,0.4-0.1,0.5-0.1   c0.3-0.1,0.5-0.1,0.8-0.2c0.2-0.1,0.4-0.1,0.6-0.2c0.3-0.1,0.5-0.2,0.8-0.2c0.3-0.1,0.7-0.2,1-0.3c0.2-0.1,0.4-0.1,0.6-0.2   c0.3-0.1,0.5-0.2,0.8-0.2c0.2,0,0.4-0.1,0.5-0.1c0.3-0.1,0.6-0.2,0.9-0.2c0.1,0,0.3-0.1,0.5-0.1c0.4-0.1,0.9-0.2,1.3-0.3   c0.6-0.2,1.3-0.3,2-0.4c0.1,0,0.3-0.1,0.4-0.1c0.7-0.1,1.3-0.2,2-0.3c0.1,0,0.2,0,0.3,0c0.6-0.1,1.2-0.1,1.8-0.2c0.1,0,0.3,0,0.4,0   c0.7,0,1.3-0.1,2-0.1c0.2,0,0.4,0,0.5,0c0.4,0,0.7,0,1.1,0c0.2,0,0.4,0,0.6,0c0.4,0,0.7,0.1,1.1,0.1c0.2,0,0.3,0,0.5,0.1   c0.5,0.1,0.9,0.1,1.4,0.2c0.1,0,0.1,0,0.2,0c0.5,0.1,1,0.2,1.5,0.4c0.1,0,0.3,0.1,0.4,0.1c0.3,0.1,0.7,0.2,1,0.4   c0.2,0.1,0.3,0.1,0.5,0.2c0.3,0.1,0.6,0.3,0.9,0.4c0.2,0.1,0.3,0.2,0.5,0.3c0.3,0.2,0.6,0.4,0.9,0.6c0.1,0.1,0.3,0.2,0.4,0.3   c0.4,0.3,0.8,0.6,1.2,1c-2.1-3.8-5.8-6.4-9.9-8.2c-0.7-0.3-1.4-0.6-2.1-0.8c-0.3-0.1-0.7-0.3-1-0.4c-0.3-0.1-0.7-0.2-1-0.4   c-4.2-1.4-8.5-2.4-12.5-4.1c-1.3-0.6-2.6-1.2-3.9-2c-0.5-0.3-1-0.6-1.5-1c-0.2-0.1-0.4-0.3-0.6-0.4c-0.3-0.2-0.6-0.4-0.8-0.7   c-0.2-0.2-0.5-0.4-0.7-0.6c-0.2-0.2-0.4-0.3-0.6-0.5c-0.3-0.3-0.6-0.5-0.9-0.8c-0.1-0.1-0.3-0.3-0.4-0.4c-0.4-0.4-0.7-0.7-1.1-1.1   c0,0-0.1-0.1-0.1-0.1c-1.4-1.4-2.7-2.7-4-4.1c22-22.3,34.4-52.6,34.4-84.6c0-31.6-12-61.1-33.7-83.1c-21.7-21.9-50.6-34-81.4-34   c-30.8,0-59.7,12.1-81.4,34C86,150.1,74,179.6,74,211.2c0,32.9,12.7,63.4,35.9,86.1l0.5,0.5c-0.6,0.2-1.3,0.3-1.9,0.5   c-2.5,0.8-5,1.6-7.5,2.6c-2.5,0.9-4.9,2-7.3,3.1c-9.6,4.4-18.6,10.2-26.5,17.2c16.6-10.5,35.4-18,55-18.9c1.2-0.1,2.5-0.1,3.7-0.1   c1.2,0,2.4,0,3.6,0.1c0.3,0,0.6,0,0.9,0.1c0.9,0,1.8,0.1,2.6,0.2c0.4,0,0.9,0.1,1.3,0.1c0.7,0.1,1.5,0.2,2.2,0.3   c0.5,0.1,1,0.1,1.5,0.2c0.7,0.1,1.4,0.2,2.1,0.3c0.5,0.1,1,0.2,1.5,0.3c0.7,0.1,1.3,0.3,2,0.4c0.5,0.1,1,0.2,1.5,0.4   c0.6,0.2,1.3,0.3,1.9,0.5c0.5,0.1,1,0.3,1.5,0.5c0.6,0.2,1.3,0.4,1.9,0.6c0.5,0.2,1,0.3,1.5,0.5c0.6,0.2,1.2,0.4,1.8,0.7   c0.5,0.2,1,0.4,1.5,0.6c0.6,0.3,1.2,0.5,1.8,0.8c0.5,0.2,1,0.4,1.4,0.7c0.6,0.3,1.2,0.6,1.8,0.9c0.5,0.2,0.9,0.5,1.4,0.7   c0.6,0.3,1.2,0.6,1.7,1c0.4,0.3,0.9,0.5,1.3,0.8c0.6,0.4,1.1,0.7,1.7,1.1c0.4,0.3,0.8,0.5,1.3,0.8c0.6,0.4,1.1,0.8,1.7,1.3   c0.4,0.3,0.8,0.6,1.1,0.8c0.6,0.5,1.2,1,1.8,1.5c0.3,0.3,0.6,0.5,0.9,0.8c0.9,0.8,1.7,1.6,2.6,2.4c2-0.8,4-1.5,6-2.2   c4-1.4,8-2.7,12.1-3.8c2-0.6,4.1-1.1,6.1-1.6v0c-0.4-0.6-0.8-1.2-1.3-1.8c-0.5-0.6-1-1.1-1.5-1.6c-1-1-2.2-2-3.4-2.8   s-2.5-1.6-3.8-2.3s-2.7-1.4-4-2c-1.1-0.5-2.2-0.9-3.3-1.4c-0.3-0.1-0.6-0.3-1-0.4c-0.8-0.3-1.7-0.6-2.5-1c-0.3-0.1-0.6-0.2-1-0.4   c-1.1-0.4-2.2-0.8-3.4-1.2c-0.1,0-0.2-0.1-0.3-0.1c-1-0.3-2-0.6-3.1-0.9c-0.3-0.1-0.7-0.2-1-0.3c-0.9-0.2-1.7-0.5-2.6-0.7   c-0.3-0.1-0.6-0.2-1-0.2c-1.1-0.3-2.3-0.5-3.4-0.8c-0.2,0-0.4-0.1-0.6-0.1c-1-0.2-2-0.4-3-0.6c-0.4-0.1-0.7-0.1-1.1-0.2   c-0.9-0.1-1.8-0.3-2.7-0.4c-0.3,0-0.6-0.1-0.9-0.1c-1.2-0.2-2.3-0.3-3.5-0.4c-0.2,0-0.5,0-0.7-0.1c-1-0.1-1.9-0.2-2.9-0.2   c-0.4,0-0.7,0-1.1-0.1c-0.9-0.1-1.8-0.1-2.8-0.1c-0.3,0-0.6,0-0.8,0c-1.1,0-2.2-0.1-3.3-0.1c-0.1,0-0.2,0-0.2,0c-0.8,0-1.5,0-2.3,0   c-0.6,0-1.1,0-1.7,0c-0.8,0-1.6,0.1-2.4,0.1c-0.5,0-1.1,0.1-1.6,0.1c-0.9,0.1-1.8,0.2-2.7,0.2c-0.4,0-0.9,0.1-1.3,0.1   c-1.3,0.1-2.7,0.3-4,0.5c-1.4,0.2-2.8,0.4-4.2,0.7c-0.9-0.8-1.8-1.6-2.6-2.4c14.1-5,29.1-3.9,40.4-2.4c0.1,0,0.1,0,0.2,0   c0.7,0.1,1.5,0.2,2.2,0.3c1.1,0.2,2.2,0.3,3.4,0.6c1.1,0.2,2.3,0.5,3.5,0.7c0.6,0.1,1.2,0.3,1.8,0.4c0.7,0.2,1.5,0.4,2.3,0.6   c0.9,0.2,1.7,0.5,2.6,0.7c1.8,0.5,3.6,1.1,5.3,1.7c0.4,0.1,0.7,0.3,1.1,0.4c2.1,0.8,4.3,1.6,6.4,2.5c0.1,0.1,0.3,0.1,0.4,0.2   c9.9,4.2,19,9.6,25,15.6c-15,4.9-29.9,10-44.7,15.1c0.9,0.1,1.8,0.2,2.7,0.2c0.3,0,0.5,0,0.8,0c0.6,0,1.2,0,1.8,0c0,0,0,0,0,0   c0.8,0,1.6,0,2.5-0.1c0.3,0,0.5,0,0.8,0c0.6,0,1.1-0.1,1.7-0.1c0.3,0,0.6-0.1,0.9-0.1c0.5-0.1,1-0.1,1.5-0.2c0.3,0,0.7-0.1,1-0.1   c0.5-0.1,1-0.1,1.5-0.2c0.3-0.1,0.7-0.1,1-0.2c0.5-0.1,1-0.2,1.5-0.3c0.3-0.1,0.6-0.1,0.9-0.2c0.5-0.1,1.1-0.2,1.6-0.4   c0.3-0.1,0.5-0.1,0.8-0.2c0.8-0.2,1.5-0.4,2.3-0.6c0.1,0,0.1,0,0.2,0c0.8-0.2,1.6-0.4,2.4-0.7c0.3-0.1,0.5-0.2,0.8-0.2   c0.5-0.2,1.1-0.3,1.6-0.5c0.3-0.1,0.6-0.2,0.9-0.3c0.5-0.2,1-0.3,1.5-0.5c0.3-0.1,0.7-0.2,1-0.3c0.5-0.2,1-0.3,1.5-0.5   c0.3-0.1,0.7-0.2,1-0.3c0.5-0.2,1-0.3,1.5-0.5c0.3-0.1,0.6-0.2,0.9-0.3c0.6-0.2,1.2-0.4,1.8-0.6c1-0.3,1.9-0.6,2.9-1   c0.7-0.2,1.5-0.5,2.2-0.7c0.2-0.1,0.4-0.1,0.6-0.2c0.6-0.2,1.2-0.4,1.9-0.6c0.2-0.1,0.3-0.1,0.5-0.2c0.8-0.2,1.5-0.5,2.3-0.7   c0.2,0,0.3-0.1,0.5-0.1c0.6-0.2,1.3-0.4,1.9-0.5c0.2-0.1,0.4-0.1,0.6-0.2c0.8-0.2,1.6-0.4,2.4-0.6c0,0,0,0,0,0   c0.8-0.2,1.5-0.4,2.3-0.5c0.2,0,0.4-0.1,0.6-0.1c0.7-0.1,1.3-0.3,2-0.4c0.1,0,0.3-0.1,0.4-0.1c0.8-0.1,1.6-0.3,2.4-0.4   c0.2,0,0.3,0,0.5-0.1c0.6-0.1,1.3-0.2,1.9-0.2c0.2,0,0.4,0,0.6-0.1c0.8-0.1,1.6-0.2,2.4-0.2c0.1,0,0.1,0,0.2,0   c0.7,0,1.5-0.1,2.2-0.1c0.2,0,0.4,0,0.7,0c0.8,0,1.5,0,2.2,0c0,0,0.1,0,0.1,0c0.8,0,1.5,0.1,2.3,0.1c0.1,0,0.2,0,0.3,0   c0.8,0.1,1.5,0.2,2.3,0.3c0.1,0,0.3,0,0.4,0.1c0.8,0.1,1.5,0.2,2.2,0.4c0.1,0,0.2,0.1,0.4,0.1c0.8,0.2,1.6,0.4,2.3,0.6   c5.8,1.7,11.2,4.7,17.2,5.4c0.5,0.1,0.9,0.1,1.4,0.1c0.2,0,0.3,0,0.5,0c0.3,0,0.6,0,0.9,0c0,0,0,0,0.1,0c0.1,0,0.2,0,0.4,0   c0.3,0,0.6,0,1,0C271.4,322.5,271.6,322.5,271.8,322.5z M179.7,251v15H194v-15.2c0.6,0.1,1.3,0.2,1.9,0.3   c0.5,6.3,1.2,14.3,1.7,20.7c-3.9,2.1-7.8,4.3-12.1,4.1c-4.1-0.1-8-2.3-12.1-2.1c-4.3,0.2-7.8,2.9-11.3,5.6c0.3-6.8,1-14.7,1.5-21.3   C168.1,254.6,173.8,252.1,179.7,251z M166.5,234.9c5.4-3.8,11.9-6.1,18.5-6.7c0.5,0.5,1.2,0.8,2,0.8c0.9,0,1.6-0.4,2.1-1   c1.7,0.1,3.4,0.2,5.1,0.5c0.4,5.7,0.9,11.4,1.3,17c-0.8-0.1-1.5-0.2-2.3-0.3c-1.2-2.4-3.6-4-6.5-4c-2.8,0-5.2,1.6-6.3,4   c-5.4,0.6-10.7,2.1-14.9,5.6C165.6,245.5,166,240.2,166.5,234.9z M162.7,174.6c0.1-0.7,0.2-1.4,0.3-2.1c11.1-3,23.5-3.2,35.1-0.2   C186.2,171.8,174.3,172.5,162.7,174.6z M170.4,165.3c0.1,1.2,0.2,2.5,0.2,3.8c-2.5,0.2-4.9,0.6-7.3,1.1c-0.3-1.7-0.3-3.5,0.1-5.1   C165.6,165.2,168,165.3,170.4,165.3z M170.5,162.3L170.5,162.3c0.3,0,0.6,0.2,0.6,0.4c0,0.3-0.2,0.5-0.4,0.6c0,0-0.1,0-0.1,0   l-5.5-0.4L170.5,162.3z M167.8,160.4c0.1,0,0.1,0,0.2,0c0.1,0,0.1,0,0.2,0C168,160.4,167.9,160.4,167.8,160.4z M172,140.6   L172,140.6c-0.4,0-0.7,0-1.1-0.1c-0.4,0-0.7-0.1-1-0.2c0.3,0.1,0.7,0.2,1,0.2C171.3,140.6,171.7,140.6,172,140.6z M173.2,135.7   c0.1,0,0.1,0,0.2,0c0.2,0,0.3,0,0.5,0C173.6,135.7,173.4,135.7,173.2,135.7z M177.9,140.6c-0.3,4.5-0.3,9,0.2,13.5   c-1.3-0.1-2.7,0.3-3.6,1.2c0.2-4.7,0.1-9.5-0.3-14.2C175.2,140.7,176.5,140.5,177.9,140.6z M186.4,128.1c-2.8,1.6-5,4.2-6.1,7.3   c-1.1-0.3-2.2-0.4-2.8-0.3C178.9,131.3,182.5,128.5,186.4,128.1z M194.3,140.3c0.1,4.2,0.3,8.3,0.4,12.5c0,0.3,0,0.5-0.2,0.7   c-0.2,0.2-0.6,0.2-0.9,0.2c-4.5-0.4-9-0.2-13.4,0.5c0.2-4.5,0.1-9.1-0.3-13.7C184.8,140.1,189.7,140,194.3,140.3z M186.9,126.1   c0.3,0,0.5,0,0.8,0c0,0,0,0,0,0C187.5,126,187.2,126,186.9,126.1z M193.2,127.3C193.2,127.3,193.2,127.3,193.2,127.3   c0.6,0.3,1.2,0.7,1.8,1.1C194.4,128,193.9,127.6,193.2,127.3C193.2,127.3,193.2,127.3,193.2,127.3z M191.8,156.3   c-5.7-0.9-11.5-0.1-17,1.4c0-0.4,0-0.8,0-1.2C179.7,154.3,186.1,154.3,191.8,156.3z M204.2,140.4c-0.8,0.3-1.5,0.4-2.2,0.5v0   C202.7,140.9,203.5,140.7,204.2,140.4z M202.2,135.8C202.2,135.8,202.2,135.8,202.2,135.8c0.1,0,0.2,0,0.2,0   C202.3,135.8,202.3,135.8,202.2,135.8z M204.8,169c0.1-1.2,0.1-2.4-0.1-3.5c1.9-0.7,4.3-0.8,6.6-0.3c0.3,1.5,0.4,3.1,0.4,4.7   C209.4,169.1,207.1,168.4,204.8,169z M208.4,179.6c-0.7,0.9-1.2,1.9-1.5,2.9c-0.1,0.4-0.2,0.8-0.3,1.2c0.1-0.4,0.2-0.8,0.3-1.2   C207.2,181.5,207.7,180.5,208.4,179.6z M204.7,163.3c-0.3,0.1-0.5-0.1-0.6-0.4c-0.1-0.3,0.1-0.5,0.4-0.6c0,0,0.1,0,0.1,0   c1.9-0.1,3.9,0.1,5.7,0.5C208.3,162.7,206.4,162.8,204.7,163.3z M202.6,158C202.7,158,202.7,158,202.6,158c0,0-0.2,0-0.3,0   C202.4,158,202.5,158,202.6,158z M200.2,155c-0.8-0.6-1.8-1-2.8-1.1c-0.1-4.3-0.3-8.7-0.4-13c0.9,0.2,2.1,0.3,3.3,0.2   C200.1,145.7,200.1,150.4,200.2,155z M187,189.8c-1.6,0-2.9,1.3-2.9,2.9v8.2c-5.3,0.5-10.5,1.9-15.2,4.4c0.7-5.2,1.3-10.7,1.9-16.2   c6-3.5,13.1-4.9,19.9-4.3c0.4,5.4,0.8,10.8,1.2,16.2c-0.7-0.1-1.5-0.1-2.2-0.1v-8.1C189.9,191.1,188.6,189.8,187,189.8z    M168.4,211.4c7.4-2.9,15.9-4.1,24.1-3.3c0.4,5.1,0.8,10.2,1.2,15.3c-1.3-0.2-2.6-0.4-3.9-0.6v-5.1c0-1.6-1.3-2.9-2.9-2.9   c-1.6,0-2.9,1.3-2.9,2.9v5c-6.1,0.3-12.2,2.1-17.2,5.6C167.3,222.7,167.9,217.1,168.4,211.4z M82,211.2c0-29.5,11.1-57,31.4-77.5   c20.1-20.4,47-31.6,75.7-31.6c28.7,0,55.6,11.2,75.7,31.6c20.2,20.5,31.4,48,31.4,77.5c0,30.1-11.7,58.6-32.5,79.4c0,0,0,0,0,0   c-0.2-0.2-0.5-0.3-0.7-0.4c-0.2-0.1-0.4-0.3-0.6-0.4c-0.2-0.1-0.4-0.2-0.6-0.4c-0.3-0.1-0.5-0.3-0.8-0.4c-0.2-0.1-0.4-0.2-0.5-0.2   c-0.5-0.2-1-0.4-1.5-0.6c-6.6-2.2-14.1-0.3-20.7-2.5c-5.7-1.8-9.9-6.3-14.4-10.3c-0.3-0.3-0.6-0.5-0.9-0.8   c-0.1-0.1-0.2-0.2-0.3-0.2c-0.2-0.2-0.4-0.4-0.6-0.5c-0.1-0.1-0.2-0.2-0.3-0.3c-0.2-0.2-0.4-0.3-0.6-0.5c-0.1-0.1-0.2-0.2-0.4-0.3   c-0.2-0.2-0.4-0.3-0.6-0.5c-0.1-0.1-0.2-0.2-0.3-0.3c-0.2-0.2-0.5-0.3-0.7-0.5c-0.1-0.1-0.2-0.1-0.3-0.2c-0.7-0.4-1.3-0.9-2-1.2   c-0.1-0.1-0.2-0.1-0.3-0.1c-0.3-0.1-0.5-0.3-0.8-0.4c0,0-0.1,0-0.1-0.1c-1.5-20.5-3.7-41.3-5.8-61.4c-0.2-5.7-0.8-10.9-1.3-16   c-0.3-3.1-0.6-6.2,0.3-9.1c0.7-2.3,2.8-4.7,5.2-4.7l1.3,0l0.5-1.2c0.7-1.7,1-3.2,1.3-4.6l0.3-1.5l-1.4-0.7   c-0.3-0.1-0.6-0.3-0.8-0.4c0-1.3-0.2-2.6-0.4-4c0.6-0.5,1.2-1.1,1.4-2.2c0.2-1.4-0.5-2.7-1.9-3.6c-2.4-1.6-5.4-1.9-7.9-1.9   c-0.3-0.6-0.7-1-1-1.3c-0.3-0.2-0.6-0.5-0.9-0.6c0.2-4.6,0.1-9.2-0.2-13.9c0.9-0.3,1.9-0.7,2.9-1.3c1.1-0.7,1.7-1.5,1.9-2.5   c0.2-1-0.1-2-0.8-2.8c-0.5-0.6-1.2-1-1.6-1.2c-1.3-0.6-2.7-1-4.2-1c-0.3,0-0.5,0-0.8,0c-1.2-3.6-3.9-6.7-7.3-8.4   c-2-1-4.2-1.5-6.4-1.5c-2.2,0-4.4,0.5-6.3,1.4c-3.4,1.7-6.1,4.7-7.4,8.2c-0.2,0-0.4,0-0.6,0c-1.1,0-2.2,0.1-3.4,0.4   c-2.5,0.6-3.4,2-3.7,3c-0.5,1.7,0.4,3.7,2.1,4.7c0.6,0.3,1.2,0.5,1.8,0.7c0.1,4.9,0.2,9.8,0.3,14.7c-0.5,0.3-0.9,0.8-1.2,1.3   c-0.4,0-0.8,0-1.3,0c-2.2,0-4.5,0.4-6.6,1c-2.8,0.9-3.3,2.5-3.4,3.5c-0.1,0.9,0.2,1.8,0.8,2.5c0.2,0.3,0.5,0.5,0.8,0.7   c-0.1,1.3-0.1,2.7,0,4.2c-0.2,0.1-0.5,0.3-0.7,0.4l-0.9,0.8l0.2,1.2c0.2,0.9,0.3,2.3,0.5,3.7l0.2,2.5l2.4-0.8   c0.3-0.1,0.5-0.1,0.8-0.1c1.6,0,3.5,1.5,4.3,3.4c1,2.6,0.7,5.8,0.3,8.6c-3.6,30.1-6.4,60.7-8.3,91l-0.1,1.2c-0.6,0.4-1.1,0.7-1.7,1   c-5.3,2.8-11.3,3-17.3,3c-0.6,0-1.2,0-1.7,0c-0.5,0-1.1,0-1.6,0c-0.1,0-0.2,0-0.3,0c-0.1,0-0.1,0-0.2,0c-0.8,0-1.6,0-2.4,0   c-0.5,0-0.9,0-1.4,0c-0.2,0-0.3,0-0.5,0c-0.3,0-0.6,0-0.9,0.1c-0.2,0-0.4,0-0.6,0c-0.3,0-0.5,0.1-0.8,0.1c-0.2,0-0.4,0-0.6,0.1   c-0.2,0-0.5,0.1-0.7,0.1c-0.5,0.1-0.9,0.1-1.4,0.2c-0.1,0-0.3,0.1-0.4,0.1c-0.3,0.1-0.6,0.1-0.9,0.2c-0.1,0-0.2,0.1-0.4,0.1   c-0.3,0.1-0.6,0.2-1,0.2c-0.1,0-0.1,0-0.2,0c-1.5,0.4-3,0.9-4.3,1.6c0,0,0,0,0,0c-1.4,0.7-2.7,1.5-3.8,2.5c0,0,0,0,0,0   C93.9,270.3,82,241.9,82,211.2z M213.6,171.6c0.5,0.2,0.9,0.3,1.5,0.6C214.6,171.9,214.1,171.8,213.6,171.6z M206.3,139.3   c0.2-0.1,0.3-0.3,0.4-0.4C206.6,139.1,206.4,139.2,206.3,139.3z M161.3,171.8C161.3,171.8,161.3,171.7,161.3,171.8   c0.2,0,0.3,0,0.4,0C161.5,171.8,161.4,171.7,161.3,171.8z M161.2,164.5c0.1,0,0.1,0,0.2,0c0,0,0,0,0,0   C161.3,164.5,161.2,164.5,161.2,164.5z" style="fill: #0000a8; fill-opacity: 1;"></path><path class="st2" d="M167.9,324.4c0.4-0.1,0.7-0.2,1.1-0.4c0.2-0.1,0.4-0.1,0.5-0.2c0.5-0.2,1-0.4,1.6-0.6   c-10.8-8.8-24.3-14.3-38.2-15.6c-1-0.1-2-0.2-3-0.2c-0.3,0-0.6,0-0.9,0c-0.7,0-1.4,0-2.1-0.1c-0.2,0-0.4,0-0.5,0   c-0.2,0-0.5,0-0.7,0c-0.3,0-0.6,0-0.9,0c-0.5,0-1.1,0-1.6,0.1c-0.3,0-0.6,0-0.9,0c-0.6,0-1.3,0.1-1.9,0.1c-0.2,0-0.4,0-0.6,0   c-0.8,0.1-1.6,0.2-2.4,0.3c-0.2,0-0.4,0.1-0.6,0.1c-0.6,0.1-1.2,0.2-1.8,0.3c-0.3,0-0.6,0.1-0.9,0.1c-0.5,0.1-1,0.2-1.5,0.3   c-0.3,0.1-0.6,0.1-0.9,0.2c-0.5,0.1-1,0.2-1.5,0.3c-0.3,0.1-0.6,0.1-0.9,0.2c-0.6,0.1-1.1,0.3-1.7,0.4c-0.2,0.1-0.5,0.1-0.7,0.2   c-0.8,0.2-1.6,0.4-2.3,0.7c-0.1,0-0.3,0.1-0.4,0.1c-0.6,0.2-1.3,0.4-1.9,0.6c-0.3,0.1-0.5,0.2-0.8,0.3c-0.5,0.2-1,0.4-1.5,0.6   c-0.3,0.1-0.6,0.2-0.9,0.3c-0.5,0.2-1,0.4-1.4,0.6c-0.3,0.1-0.6,0.2-0.8,0.4c-0.5,0.2-1,0.5-1.5,0.7c-0.2,0.1-0.5,0.2-0.7,0.3   c-0.7,0.4-1.4,0.7-2.2,1.1c0.9-0.2,1.8-0.3,2.6-0.5c0.2,0,0.4-0.1,0.6-0.1c0.9-0.1,1.7-0.2,2.5-0.3c0.1,0,0.1,0,0.2,0   c0.8-0.1,1.6-0.1,2.4-0.2c0.2,0,0.4,0,0.6,0c0.8,0,1.6-0.1,2.4-0.1c0.1,0,0.3,0,0.4,0c0.5,0,1.1,0,1.6,0c0.2,0,0.5,0,0.7,0   c0.4,0,0.9,0,1.3,0.1c0.2,0,0.5,0,0.7,0.1c0.5,0,0.9,0.1,1.4,0.1c0.2,0,0.4,0,0.6,0.1c0.6,0.1,1.3,0.2,1.9,0.2c0.1,0,0.1,0,0.2,0   c0.6,0.1,1.1,0.2,1.7,0.3c0.2,0,0.4,0.1,0.6,0.1c0.4,0.1,0.9,0.2,1.3,0.2c0.2,0,0.4,0.1,0.7,0.1c0.4,0.1,0.9,0.2,1.3,0.3   c0.2,0,0.4,0.1,0.6,0.1c0.6,0.1,1.2,0.3,1.8,0.5c4.2,1.1,8.4,2.5,12.5,3.9c2.1,0.7,4.1,1.4,6.2,2c2.1,0.6,4.2,1.2,6.3,1.7   c0.9,0.2,1.9,0.4,2.8,0.6c0.1,0,0.2,0,0.3,0c0.9,0.2,1.8,0.3,2.7,0.4c0.1,0,0.3,0,0.4,0.1c0.9,0.1,1.8,0.2,2.7,0.3   c0.1,0,0.3,0,0.4,0c0.9,0.1,1.8,0.1,2.6,0.1c0.1,0,0.1,0,0.2,0c0.1,0,0.3,0,0.4,0c0.3,0,0.6,0,0.9,0c0.3,0,0.5,0,0.8,0   c0.3,0,0.6,0,0.9-0.1c0.3,0,0.5,0,0.8-0.1c0.3,0,0.6-0.1,0.9-0.1c0.2,0,0.5-0.1,0.7-0.1c0.3,0,0.6-0.1,0.9-0.2   c0.2,0,0.5-0.1,0.7-0.1c0.3-0.1,0.6-0.1,0.9-0.2c0.2-0.1,0.5-0.1,0.7-0.2c0.3-0.1,0.6-0.2,1-0.3   C167.5,324.5,167.7,324.5,167.9,324.4z" style="fill: #0000a8; fill-opacity: 1;"></path><path class="st3" d="M203.6,188.5c-4-2.1-8.3-3.3-12.8-3.7c0.4,5.4,0.8,10.8,1.2,16.2c4.8,0.5,9.6,1.8,13.8,4  C205.2,199.5,204.6,194,203.6,188.5z" style="fill: #C4D4DC;"></path><path class="st3" d="M205.5,211.1c-4.2-1.6-8.5-2.6-13-3c0.4,5.1,0.8,10.2,1.2,15.3c5,0.9,9.8,2.7,14.2,5.1  C207.3,222.7,206.5,216.8,205.5,211.1z" style="fill: #C4D4DC;"></path><path class="st3" d="M208.7,234.2c-4.4-2.8-9.3-4.7-14.5-5.6c0.4,5.7,0.9,11.4,1.3,17c5.4,0.8,10.7,2.5,15.2,5.4  C210.2,245.4,209.7,239.7,208.7,234.2z" style="fill: #C4D4DC;"></path><path class="st3" d="M211.9,268.7c0.1-3.7-0.1-7.3-1-10.7c-1.5-1.9-3.7-3.1-5.8-4.1c-2.9-1.3-6-2.3-9.1-2.9  c0.5,6.5,1.2,14.2,1.7,20.7C202.2,269.8,207.1,267.9,211.9,268.7z" style="fill: #C4D4DC;"></path></svg> <svg x="207" y="309.32500076293945" viewBox="0.5799999833106995 -0.05000000447034836 286.77001953125 13.960000038146973" height="13.960000038146973" width="286.77001953125" style="overflow: visible;"><g fill="#0000a8" fill-opacity="1" style=""><path d="M2.29 13.50L0.58 13.50L6.26-0.05L6.37-0.05L12.04 13.50L10.04 13.50L5.80 2.68L7.04 1.87L2.29 13.50ZM3.40 10.08L3.91 8.57L8.75 8.57L9.32 10.08L3.40 10.08ZM27.38 0.49L30.73 0.49Q32.69 0.49 33.81 1.29Q34.94 2.09 34.94 3.78L34.94 3.78Q34.94 4.81 34.47 5.56Q34.00 6.32 33.17 6.75Q32.33 7.18 31.19 7.24L31.19 7.24L30.94 6.34Q32.26 6.37 33.30 6.80Q34.34 7.24 34.96 8.01Q35.57 8.78 35.57 9.85L35.57 9.85Q35.57 10.82 35.21 11.51Q34.85 12.20 34.24 12.65Q33.62 13.09 32.85 13.29Q32.08 13.50 31.25 13.50L31.25 13.50L27.38 13.50L27.38 0.49ZM29.12 6.19L31.09 6.19Q32.17 6.19 32.65 5.59Q33.14 4.99 33.14 4.12L33.14 4.12Q33.14 3.10 32.51 2.63Q31.88 2.16 30.82 2.16L30.82 2.16L29.12 2.16L29.12 6.19ZM29.12 11.88L31.16 11.88Q31.88 11.88 32.48 11.66Q33.08 11.45 33.44 11.00Q33.79 10.55 33.79 9.86L33.79 9.86Q33.79 9.11 33.38 8.68Q32.98 8.24 32.35 8.06Q31.72 7.87 31.05 7.87L31.05 7.87L29.12 7.87L29.12 11.88ZM42.10 13.50L42.10 0.49L50.56 0.49L50.56 2.16L43.85 2.16L43.85 6.12L49.84 6.12L49.84 7.79L43.85 7.79L43.85 11.83L50.81 11.83L50.81 13.50L42.10 13.50ZM57.85 13.50L56.14 13.50L61.83-0.05L61.94-0.05L67.61 13.50L65.61 13.50L61.36 2.68L62.60 1.87L57.85 13.50ZM58.97 10.08L59.47 8.57L64.31 8.57L64.89 10.08L58.97 10.08ZM81.77 10.98L82.51 12.53Q82.19 12.74 81.63 13.01Q81.07 13.28 80.33 13.46Q79.58 13.64 78.70 13.64L78.70 13.64Q77.18 13.63 75.97 13.10Q74.75 12.58 73.91 11.68Q73.06 10.78 72.60 9.60Q72.14 8.42 72.14 7.09L72.14 7.09Q72.14 5.63 72.62 4.40Q73.10 3.17 73.96 2.26Q74.83 1.35 76.01 0.85Q77.18 0.34 78.59 0.34L78.59 0.34Q79.76 0.34 80.71 0.66Q81.67 0.97 82.35 1.40L82.35 1.40L81.65 3.02Q81.11 2.66 80.34 2.34Q79.58 2.02 78.64 2.02L78.64 2.02Q77.69 2.02 76.84 2.39Q76.00 2.77 75.35 3.46Q74.70 4.14 74.33 5.05Q73.96 5.96 73.96 7.00L73.96 7.00Q73.96 8.06 74.30 8.97Q74.63 9.88 75.25 10.55Q75.87 11.21 76.75 11.59Q77.63 11.97 78.73 11.97L78.73 11.97Q79.72 11.97 80.50 11.66Q81.27 11.36 81.77 10.98L81.77 10.98ZM88.24 7.00L88.24 7.00Q88.24 5.65 88.75 4.46Q89.26 3.26 90.18 2.33Q91.10 1.40 92.30 0.87Q93.49 0.34 94.88 0.34L94.88 0.34Q96.25 0.34 97.44 0.87Q98.64 1.40 99.57 2.33Q100.49 3.26 101.02 4.46Q101.54 5.65 101.54 7.00L101.54 7.00Q101.54 8.39 101.02 9.59Q100.49 10.80 99.58 11.71Q98.66 12.62 97.45 13.13Q96.25 13.64 94.88 13.64L94.88 13.64Q93.49 13.64 92.30 13.14Q91.10 12.64 90.18 11.74Q89.26 10.84 88.75 9.63Q88.24 8.42 88.24 7.00ZM90.04 7.02L90.04 7.02Q90.04 8.05 90.41 8.94Q90.79 9.83 91.46 10.51Q92.12 11.20 93.01 11.58Q93.89 11.97 94.91 11.97L94.91 11.97Q95.92 11.97 96.80 11.58Q97.69 11.20 98.33 10.51Q98.98 9.83 99.36 8.94Q99.74 8.05 99.74 7.00L99.74 7.00Q99.74 5.98 99.36 5.07Q98.98 4.16 98.32 3.47Q97.65 2.79 96.77 2.40Q95.89 2.02 94.88 2.02L94.88 2.02Q93.85 2.02 92.97 2.41Q92.09 2.81 91.42 3.49Q90.76 4.18 90.40 5.09Q90.04 5.99 90.04 7.02ZM119.39 13.91L119.34 13.91L109.28 3.71L109.78 3.83L109.82 13.50L108.07 13.50L108.07 0.09L108.16 0.09L118.12 10.33L117.70 10.24L117.67 0.49L119.39 0.49L119.39 13.91ZM136.03 13.50L136.03 0.49L137.77 0.49L137.77 13.50L136.03 13.50ZM156.44 13.91L156.38 13.91L146.32 3.71L146.83 3.83L146.86 13.50L145.12 13.50L145.12 0.09L145.21 0.09L155.16 10.33L154.75 10.24L154.71 0.49L156.44 0.49L156.44 13.91ZM172.12 2.16L172.12 0.49L180.76 0.49L180.76 2.16L177.26 2.16L177.26 13.50L175.52 13.50L175.52 2.16L172.12 2.16ZM195.70 0.49L197.42 0.49L197.42 13.50L195.70 13.50L195.70 7.79L188.87 7.79L188.87 13.50L187.13 13.50L187.13 0.49L188.87 0.49L188.87 6.14L195.70 6.14L195.70 0.49ZM204.77 13.50L204.77 0.49L213.23 0.49L213.23 2.16L206.51 2.16L206.51 6.12L212.51 6.12L212.51 7.79L206.51 7.79L206.51 11.83L213.48 11.83L213.48 13.50L204.77 13.50ZM233.57 13.50L229.39 13.50L229.39 0.49L232.94 0.49Q234.86 0.49 236.22 1.08Q237.58 1.67 238.41 2.65Q239.24 3.62 239.62 4.80Q240.01 5.98 240.01 7.15L240.01 7.15Q240.01 8.62 239.50 9.79Q238.99 10.96 238.09 11.79Q237.19 12.62 236.02 13.06Q234.86 13.50 233.57 13.50L233.57 13.50ZM231.14 2.16L231.14 11.83L233.23 11.83Q234.31 11.83 235.21 11.50Q236.12 11.18 236.80 10.57Q237.47 9.95 237.85 9.06Q238.23 8.17 238.23 7.04L238.23 7.04Q238.23 5.83 237.83 4.92Q237.44 4.01 236.75 3.40Q236.07 2.79 235.21 2.47Q234.34 2.16 233.39 2.16L233.39 2.16L231.14 2.16ZM246.26 13.50L244.55 13.50L250.24-0.05L250.34-0.05L256.01 13.50L254.02 13.50L249.77 2.68L251.01 1.87L246.26 13.50ZM247.37 10.08L247.88 8.57L252.72 8.57L253.30 10.08L247.37 10.08ZM262.06 0.49L265.52 0.49Q266.51 0.49 267.34 0.75Q268.18 1.01 268.80 1.52Q269.42 2.03 269.77 2.78Q270.13 3.53 270.13 4.52L270.13 4.52Q270.13 5.29 269.90 6.03Q269.68 6.77 269.15 7.37Q268.63 7.97 267.79 8.34Q266.96 8.71 265.73 8.71L265.73 8.71L263.81 8.71L263.81 13.50L262.06 13.50L262.06 0.49ZM263.81 7.04L265.70 7.04Q266.47 7.04 266.98 6.80Q267.50 6.57 267.79 6.20Q268.07 5.83 268.20 5.40Q268.33 4.97 268.33 4.59L268.33 4.59Q268.33 4.19 268.19 3.77Q268.06 3.35 267.76 2.99Q267.46 2.63 266.98 2.39Q266.51 2.16 265.82 2.16L265.82 2.16L263.81 2.16L263.81 7.04ZM265.77 8.08L267.84 8.03L271.24 13.50L269.23 13.50L265.77 8.08ZM279.29 0.49L279.29 5.72L279.23 6.37L279.47 6.05L284.80 0.49L287.05 0.49L281.66 6.07L287.35 13.50L285.14 13.50L280.39 7.18L279.29 8.24L279.29 13.50L277.52 13.50L277.52 0.49L279.29 0.49Z" transform="translate(0, 0)"></path></g></svg> <svg x="207" y="230.82499923706055" viewBox="0.3800000250339508 16 682.760009765625 64" height="64" width="682.760009765625" style="overflow: visible;"><g fill="#0000a8" fill-opacity="1" style=""><path d="M35.78 80Q32.90 80 30.11 78.37Q27.33 76.74 23.04 73.34L23.04 73.34Q19.84 70.78 17.57 69.22Q15.30 67.65 12.64 66.56Q9.98 65.47 7.23 65.47L7.23 65.47Q6.27 65.47 5.76 65.54L5.76 65.54L15.30 21.18Q11.01 22.91 8.67 26.46Q6.34 30.02 6.34 35.14L6.34 35.14Q6.34 37.50 6.78 38.43Q7.23 39.36 7.23 39.49L7.23 39.49Q3.78 39.49 2.08 38.05Q0.38 36.61 0.38 33.28L0.38 33.28Q0.38 29.18 3.74 25.31Q7.10 21.44 12.35 19.04Q17.60 16.64 22.85 16.64L22.85 16.64Q23.74 16.64 25.41 16.77L25.41 16.77L15.55 62.72Q17.34 63.17 19.23 64.03Q21.12 64.90 23.81 66.37L23.81 66.37Q27.97 68.61 30.91 69.79Q33.86 70.98 37.06 70.98L37.06 70.98Q39.94 70.98 42.43 69.95L42.43 69.95Q41.92 74.62 40.16 77.31Q38.40 80 35.78 80L35.78 80ZM34.94 28.54Q32.83 28.54 31.36 27.07Q29.89 25.60 29.89 23.49L29.89 23.49Q29.89 21.38 31.36 19.87Q32.83 18.37 34.94 18.37L34.94 18.37Q37.06 18.37 38.56 19.87Q40.06 21.38 40.06 23.49L40.06 23.49Q40.06 25.60 38.56 27.07Q37.06 28.54 34.94 28.54L34.94 28.54ZM30.59 64.38Q27.52 64.38 25.63 62.46Q23.74 60.54 23.74 56.70L23.74 56.70Q23.74 55.10 24.26 52.54L24.26 52.54L28.61 32L37.82 32L33.22 53.76Q32.96 54.72 32.96 55.81L32.96 55.81Q32.96 57.09 33.57 57.63Q34.18 58.18 35.58 58.18L35.58 58.18Q37.44 58.18 39.04 56.61Q40.64 55.04 41.34 52.54L41.34 52.54L44.03 52.54Q41.66 59.46 37.95 61.92Q34.24 64.38 30.59 64.38L30.59 64.38ZM52.67 80Q49.60 80 47.55 78.40Q45.50 76.80 45.50 73.79L45.50 73.79Q45.50 70.14 48.45 67.94Q51.39 65.73 55.94 64.26L55.94 64.26L56.70 60.86Q53.44 64.38 49.02 64.38L49.02 64.38Q45.38 64.38 42.94 61.89Q40.51 59.39 40.51 54.08L40.51 54.08Q40.51 49.34 42.40 44.13Q44.29 38.91 48.03 35.30Q51.78 31.68 56.96 31.68L56.96 31.68Q59.58 31.68 60.86 32.58Q62.14 33.47 62.14 34.94L62.14 34.94L62.14 35.33L62.85 32L72.06 32L65.73 61.70Q68.80 60.67 70.66 58.62Q72.51 56.58 73.79 52.54L73.79 52.54L76.48 52.54Q74.75 58.24 71.81 60.90Q68.86 63.55 65.15 64.51L65.15 64.51L64.19 69.12Q62.91 75.33 59.78 77.66Q56.64 80 52.67 80L52.67 80ZM53.18 58.18Q54.66 58.18 56.19 56.83Q57.73 55.49 58.30 53.18L58.30 53.18L61.57 38.02Q61.57 37.25 60.93 36.45Q60.29 35.65 58.94 35.65L58.94 35.65Q56.38 35.65 54.34 38.62Q52.29 41.60 51.14 45.79Q49.98 49.98 49.98 53.18L49.98 53.18Q49.98 56.38 50.91 57.28Q51.84 58.18 53.18 58.18L53.18 58.18ZM51.20 75.01Q52.29 75.01 53.31 73.54Q54.34 72.06 54.91 69.31L54.91 69.31L55.30 67.46Q49.02 69.76 49.02 72.90L49.02 72.90Q49.02 73.73 49.60 74.37Q50.18 75.01 51.20 75.01L51.20 75.01ZM96.90 64.38Q92.99 64.38 91.17 62.30Q89.34 60.22 89.34 57.15L89.34 57.15Q89.34 55.81 89.66 54.11Q89.98 52.42 90.34 50.82Q90.69 49.22 90.82 48.77L90.82 48.77Q91.33 46.53 91.78 44.35Q92.22 42.18 92.22 40.83L92.22 40.83Q92.22 37.57 89.92 37.57L89.92 37.57Q88.26 37.57 86.98 39.20Q85.70 40.83 84.93 43.46L84.93 43.46L80.58 64L71.36 64L80.64 20.48L90.11 19.20L86.66 35.33Q89.86 31.74 94.14 31.74L94.14 31.74Q97.41 31.74 99.33 33.54Q101.25 35.33 101.25 38.98L101.25 38.98Q101.25 40.83 100.80 43.10Q100.35 45.38 99.52 48.64L99.52 48.64Q99.01 50.62 98.59 52.51Q98.18 54.40 98.18 55.49L98.18 55.49Q98.18 56.77 98.75 57.47Q99.33 58.18 100.74 58.18L100.74 58.18Q102.66 58.18 103.81 56.80Q104.96 55.42 106.11 52.54L106.11 52.54L108.80 52.54Q106.43 59.58 103.33 61.98Q100.22 64.38 96.90 64.38L96.90 64.38ZM112.45 64.38Q109.38 64.38 107.49 62.46Q105.60 60.54 105.60 56.70L105.60 56.70Q105.60 55.10 106.11 52.54L106.11 52.54L109.95 34.56L107.84 34.56L108.35 32L110.46 32L112.38 23.17L121.86 21.89L119.68 32L123.52 32L123.01 34.56L119.17 34.56L115.07 53.76Q114.82 54.72 114.82 55.81L114.82 55.81Q114.82 57.09 115.42 57.63Q116.03 58.18 117.44 58.18L117.44 58.18Q119.30 58.18 120.90 56.61Q122.50 55.04 123.20 52.54L123.20 52.54L125.89 52.54Q123.52 59.46 119.81 61.92Q116.10 64.38 112.45 64.38L112.45 64.38ZM146.30 64.38Q142.40 64.38 140.58 62.30Q138.75 60.22 138.75 57.15L138.75 57.15Q138.75 55.81 139.07 54.11Q139.39 52.42 139.74 50.82Q140.10 49.22 140.22 48.77L140.22 48.77Q140.74 46.53 141.18 44.35Q141.63 42.18 141.63 40.83L141.63 40.83Q141.63 37.57 139.33 37.57L139.33 37.57Q137.66 37.57 136.38 39.20Q135.10 40.83 134.34 43.46L134.34 43.46L129.98 64L120.77 64L130.05 20.48L139.52 19.20L136.06 35.33Q139.26 31.74 143.55 31.74L143.55 31.74Q146.82 31.74 148.74 33.54Q150.66 35.33 150.66 38.98L150.66 38.98Q150.66 40.83 150.21 43.10Q149.76 45.38 148.93 48.64L148.93 48.64Q148.42 50.62 148 52.51Q147.58 54.40 147.58 55.49L147.58 55.49Q147.58 56.77 148.16 57.47Q148.74 58.18 150.14 58.18L150.14 58.18Q152.06 58.18 153.22 56.80Q154.37 55.42 155.52 52.54L155.52 52.54L158.21 52.54Q155.84 59.58 152.74 61.98Q149.63 64.38 146.30 64.38L146.30 64.38ZM164.86 64.26Q160.13 64.26 157.38 61.82Q154.62 59.39 154.62 54.14L154.62 54.14Q154.62 49.79 156.42 44.48Q158.21 39.17 162.18 35.30Q166.14 31.42 172.16 31.42L172.16 31.42Q180.35 31.42 180.35 41.66L180.35 41.66L180.35 41.73Q180.54 41.79 181.06 41.79L181.06 41.79Q183.17 41.79 185.92 40.67Q188.67 39.55 190.91 37.95L190.91 37.95L191.49 39.68Q189.63 41.66 186.66 43.04Q183.68 44.42 180.16 44.99L180.16 44.99Q179.65 50.82 177.54 55.17Q175.42 59.52 172.10 61.89Q168.77 64.26 164.86 64.26L164.86 64.26ZM167.42 58.50Q168.96 58.50 170.50 56.74Q172.03 54.98 173.18 51.94Q174.34 48.90 174.85 45.18L174.85 45.18Q173.12 44.80 173.12 42.50L173.12 42.50Q173.12 39.87 175.10 39.04L175.10 39.04Q174.98 36.93 174.46 36.13Q173.95 35.33 172.67 35.33L172.67 35.33Q170.56 35.33 168.58 38.40Q166.59 41.47 165.38 45.76Q164.16 50.05 164.16 53.31L164.16 53.31Q164.16 56.38 164.86 57.44Q165.57 58.50 167.42 58.50L167.42 58.50ZM189.95 64.38Q186.88 64.38 184.99 62.46Q183.10 60.54 183.10 56.70L183.10 56.70Q183.10 55.10 183.62 52.54L183.62 52.54L187.97 32L197.18 32L192.58 53.76Q192.38 54.72 192.38 55.55L192.38 55.55Q192.38 58.18 194.30 58.18L194.30 58.18Q196.10 58.18 197.38 56.67Q198.66 55.17 199.42 52.54L199.42 52.54L203.78 32L212.99 32L208.38 53.76Q208.13 54.72 208.13 55.81L208.13 55.81Q208.13 57.09 208.74 57.63Q209.34 58.18 210.75 58.18L210.75 58.18Q212.54 58.18 213.86 56.64Q215.17 55.10 215.94 52.54L215.94 52.54L218.62 52.54Q216.26 59.46 212.77 61.92Q209.28 64.38 205.76 64.38L205.76 64.38Q203.01 64.38 201.38 62.85Q199.74 61.31 199.42 58.30L199.42 58.30Q197.25 61.82 194.85 63.10Q192.45 64.38 189.95 64.38L189.95 64.38ZM223.23 64.38Q220.16 64.38 218.05 63.20Q215.94 62.02 214.91 60.13Q213.89 58.24 213.89 56.19L213.89 56.19Q213.89 54.08 214.88 52.51Q215.87 50.94 217.28 50.24L217.28 50.24Q219.78 45.76 221.63 41.18Q223.49 36.61 225.15 31.30L225.15 31.30L234.62 30.02Q234.94 38.21 235.71 47.74L235.71 47.74Q236.03 51.58 236.03 53.31L236.03 53.31Q236.03 54.78 235.78 55.74L235.78 55.74Q238.78 54.02 240.38 52.54L240.38 52.54L243.07 52.54Q238.98 57.28 233.28 60.54L233.28 60.54Q231.42 62.53 228.70 63.46Q225.98 64.38 223.23 64.38L223.23 64.38ZM221.18 59.33Q223.55 59.33 225.15 57.92Q226.75 56.51 226.75 53.38L226.75 53.38Q226.75 51.46 226.37 48L226.37 48Q225.73 40.70 225.54 38.21L225.54 38.21Q224.00 43.26 220.35 50.30L220.35 50.30Q221.82 51.07 221.82 52.54L221.82 52.54Q221.82 53.76 221.02 54.72Q220.22 55.68 219.01 55.68L219.01 55.68Q217.66 55.68 217.28 54.85L217.28 54.85Q217.28 57.15 218.21 58.24Q219.14 59.33 221.18 59.33L221.18 59.33ZM249.54 64.38Q244.80 64.38 242.18 61.92Q239.55 59.46 239.55 54.21L239.55 54.21Q239.55 49.79 241.28 44.48Q243.01 39.17 246.91 35.30Q250.82 31.42 256.83 31.42L256.83 31.42Q263.87 31.42 263.87 37.57L263.87 37.57Q263.87 41.15 261.82 44.16Q259.78 47.17 256.38 48.99Q252.99 50.82 249.15 51.07L249.15 51.07Q249.02 52.99 249.02 53.63L249.02 53.63Q249.02 56.77 250.11 57.89Q251.20 59.01 253.63 59.01L253.63 59.01Q257.09 59.01 259.55 57.41Q262.02 55.81 264.96 52.54L264.96 52.54L267.14 52.54Q260.03 64.38 249.54 64.38L249.54 64.38ZM249.66 48Q252.03 47.87 254.18 46.34Q256.32 44.80 257.63 42.43Q258.94 40.06 258.94 37.44L258.94 37.44Q258.94 34.82 257.34 34.82L257.34 34.82Q255.04 34.82 252.83 38.85Q250.62 42.88 249.66 48L249.66 48ZM284.86 64L293.57 23.30L303.04 22.02L298.50 43.39Q301.57 43.14 304.16 40.70Q306.75 38.27 308.22 34.69Q309.70 31.10 309.70 27.65L309.70 27.65Q309.70 23.81 307.71 21.38Q305.73 18.94 301.76 18.94L301.76 18.94Q293.95 18.94 289.57 23.04Q285.18 27.14 285.18 34.50L285.18 34.50Q285.18 36.86 285.63 37.79Q286.08 38.72 286.08 38.85L286.08 38.85Q282.62 38.85 280.93 37.41Q279.23 35.97 279.23 32.64L279.23 32.64Q279.23 28.54 282.59 24.67Q285.95 20.80 291.20 18.40Q296.45 16 301.70 16L301.70 16Q306.75 16 310.14 17.73Q313.54 19.46 315.17 22.30Q316.80 25.15 316.80 28.61L316.80 28.61Q316.80 32.77 314.53 36.74Q312.26 40.70 308.03 43.23Q303.81 45.76 298.30 45.76L298.30 45.76L297.98 45.76L294.08 64L284.86 64ZM313.09 64L319.87 32L329.09 32L328.26 35.97Q330.43 34.05 332.19 33.02Q333.95 32 336 32L336 32Q338.05 32 339.23 33.41Q340.42 34.82 340.42 36.80L340.42 36.80Q340.42 38.66 339.20 40.06Q337.98 41.47 335.81 41.47L335.81 41.47Q334.40 41.47 333.92 40.80Q333.44 40.13 333.18 38.85L333.18 38.85Q332.99 38.02 332.80 37.63Q332.61 37.25 332.10 37.25L332.10 37.25Q330.75 37.25 329.82 37.79Q328.90 38.34 327.42 39.68L327.42 39.68L322.30 64L313.09 64ZM347.26 64.38Q343.62 64.38 341.18 61.89Q338.75 59.39 338.75 54.08L338.75 54.08Q338.75 49.34 340.64 44.13Q342.53 38.91 346.27 35.30Q350.02 31.68 355.20 31.68L355.20 31.68Q357.82 31.68 359.10 32.58Q360.38 33.47 360.38 34.94L360.38 34.94L360.38 35.39L361.09 32L370.30 32L365.70 53.76Q365.44 54.72 365.44 55.81L365.44 55.81Q365.44 58.56 368.06 58.56L368.06 58.56Q369.86 58.56 371.17 56.90Q372.48 55.23 373.25 52.54L373.25 52.54L375.94 52.54Q373.57 59.46 370.08 61.92Q366.59 64.38 363.07 64.38L363.07 64.38Q360.38 64.38 358.75 62.88Q357.12 61.38 356.80 58.50L356.80 58.50Q354.94 61.12 352.67 62.75Q350.40 64.38 347.26 64.38L347.26 64.38ZM351.42 58.18Q353.02 58.18 354.59 56.67Q356.16 55.17 356.74 52.54L356.74 52.54L359.81 38.08Q359.81 37.25 359.17 36.45Q358.53 35.65 357.18 35.65L357.18 35.65Q354.62 35.65 352.58 38.62Q350.53 41.60 349.38 45.79Q348.22 49.98 348.22 53.18L348.22 53.18Q348.22 56.38 349.15 57.28Q350.08 58.18 351.42 58.18L351.42 58.18ZM383.23 80Q380.16 80 378.11 78.40Q376.06 76.80 376.06 73.79L376.06 73.79Q376.06 70.14 379.01 67.94Q381.95 65.73 386.50 64.26L386.50 64.26L387.26 60.80Q385.41 62.85 383.49 63.62Q381.57 64.38 379.58 64.38L379.58 64.38Q376.51 64.38 374.62 62.46Q372.74 60.54 372.74 56.70L372.74 56.70Q372.74 55.10 373.25 52.54L373.25 52.54L377.60 32L386.82 32L382.21 53.76Q382.02 54.53 382.02 55.36L382.02 55.36Q382.02 58.18 383.94 58.18L383.94 58.18Q385.60 58.18 386.88 56.74Q388.16 55.30 388.93 52.93L388.93 52.93L393.41 32L402.62 32L396.29 61.70Q399.36 60.67 401.22 58.62Q403.07 56.58 404.35 52.54L404.35 52.54L407.04 52.54Q405.31 58.24 402.37 60.90Q399.42 63.55 395.71 64.51L395.71 64.51L394.75 69.12Q393.47 75.33 390.34 77.66Q387.20 80 383.23 80L383.23 80ZM381.76 75.01Q382.85 75.01 383.87 73.54Q384.90 72.06 385.47 69.31L385.47 69.31L385.86 67.46Q379.58 69.76 379.58 72.90L379.58 72.90Q379.58 73.73 380.16 74.37Q380.74 75.01 381.76 75.01L381.76 75.01ZM413.50 64.38Q408.77 64.38 406.14 61.92Q403.52 59.46 403.52 54.21L403.52 54.21Q403.52 49.79 405.25 44.48Q406.98 39.17 410.88 35.30Q414.78 31.42 420.80 31.42L420.80 31.42Q427.84 31.42 427.84 37.57L427.84 37.57Q427.84 41.15 425.79 44.16Q423.74 47.17 420.35 48.99Q416.96 50.82 413.12 51.07L413.12 51.07Q412.99 52.99 412.99 53.63L412.99 53.63Q412.99 56.77 414.08 57.89Q415.17 59.01 417.60 59.01L417.60 59.01Q421.06 59.01 423.52 57.41Q425.98 55.81 428.93 52.54L428.93 52.54L431.10 52.54Q424 64.38 413.50 64.38L413.50 64.38ZM413.63 48Q416 47.87 418.14 46.34Q420.29 44.80 421.60 42.43Q422.91 40.06 422.91 37.44L422.91 37.44Q422.91 34.82 421.31 34.82L421.31 34.82Q419.01 34.82 416.80 38.85Q414.59 42.88 413.63 48L413.63 48ZM426.50 64L433.28 32L442.50 32L441.66 35.97Q443.84 34.05 445.60 33.02Q447.36 32 449.41 32L449.41 32Q451.46 32 452.64 33.41Q453.82 34.82 453.82 36.80L453.82 36.80Q453.82 38.66 452.61 40.06Q451.39 41.47 449.22 41.47L449.22 41.47Q447.81 41.47 447.33 40.80Q446.85 40.13 446.59 38.85L446.59 38.85Q446.40 38.02 446.21 37.63Q446.02 37.25 445.50 37.25L445.50 37.25Q444.16 37.25 443.23 37.79Q442.30 38.34 440.83 39.68L440.83 39.68L435.71 64L426.50 64ZM471.17 64L487.42 20.03Q482.56 21.63 479.90 25.31Q477.25 28.99 477.25 34.43L477.25 34.43Q477.25 36.86 477.70 37.76Q478.14 38.66 478.14 38.85L478.14 38.85Q471.30 38.85 471.30 33.02L471.30 33.02Q471.30 29.06 474.34 25.06Q477.38 21.06 482.14 18.53Q486.91 16 491.65 16L491.65 16Q494.02 16 496.51 16.90L496.51 16.90L495.04 50.62L509.12 16.90L518.34 16.90L511.62 64L502.40 64L506.50 35.26L494.46 64L485.70 64L486.98 35.14L476.29 64L471.17 64ZM527.94 28.54Q525.82 28.54 524.35 27.07Q522.88 25.60 522.88 23.49L522.88 23.49Q522.88 21.38 524.35 19.87Q525.82 18.37 527.94 18.37L527.94 18.37Q530.05 18.37 531.55 19.87Q533.06 21.38 533.06 23.49L533.06 23.49Q533.06 25.60 531.55 27.07Q530.05 28.54 527.94 28.54L527.94 28.54ZM523.58 64.38Q520.51 64.38 518.62 62.46Q516.74 60.54 516.74 56.70L516.74 56.70Q516.74 55.10 517.25 52.54L517.25 52.54L521.60 32L530.82 32L526.21 53.76Q525.95 54.72 525.95 55.81L525.95 55.81Q525.95 57.09 526.56 57.63Q527.17 58.18 528.58 58.18L528.58 58.18Q530.43 58.18 532.03 56.61Q533.63 55.04 534.34 52.54L534.34 52.54L537.02 52.54Q534.66 59.46 530.94 61.92Q527.23 64.38 523.58 64.38L523.58 64.38ZM557.44 64.38Q553.54 64.38 551.71 62.30Q549.89 60.22 549.89 57.15L549.89 57.15Q549.89 55.81 550.21 54.11Q550.53 52.42 550.88 50.82Q551.23 49.22 551.36 48.77L551.36 48.77Q551.87 46.53 552.32 44.35Q552.77 42.18 552.77 40.83L552.77 40.83Q552.77 37.57 550.46 37.57L550.46 37.57Q548.80 37.57 547.52 39.20Q546.24 40.83 545.47 43.46L545.47 43.46L541.12 64L531.90 64L538.69 32L547.90 32L547.20 35.33Q550.40 31.74 554.69 31.74L554.69 31.74Q557.95 31.74 559.87 33.54Q561.79 35.33 561.79 38.98L561.79 38.98Q561.79 40.83 561.34 43.10Q560.90 45.38 560.06 48.64L560.06 48.64Q559.55 50.62 559.14 52.51Q558.72 54.40 558.72 55.49L558.72 55.49Q558.72 56.77 559.30 57.47Q559.87 58.18 561.28 58.18L561.28 58.18Q563.20 58.18 564.35 56.80Q565.50 55.42 566.66 52.54L566.66 52.54L569.34 52.54Q566.98 59.58 563.87 61.98Q560.77 64.38 557.44 64.38L557.44 64.38ZM577.34 28.54Q575.23 28.54 573.76 27.07Q572.29 25.60 572.29 23.49L572.29 23.49Q572.29 21.38 573.76 19.87Q575.23 18.37 577.34 18.37L577.34 18.37Q579.46 18.37 580.96 19.87Q582.46 21.38 582.46 23.49L582.46 23.49Q582.46 25.60 580.96 27.07Q579.46 28.54 577.34 28.54L577.34 28.54ZM572.99 64.38Q569.92 64.38 568.03 62.46Q566.14 60.54 566.14 56.70L566.14 56.70Q566.14 55.10 566.66 52.54L566.66 52.54L571.01 32L580.22 32L575.62 53.76Q575.36 54.72 575.36 55.81L575.36 55.81Q575.36 57.09 575.97 57.63Q576.58 58.18 577.98 58.18L577.98 58.18Q579.84 58.18 581.44 56.61Q583.04 55.04 583.74 52.54L583.74 52.54L586.43 52.54Q584.06 59.46 580.35 61.92Q576.64 64.38 572.99 64.38L572.99 64.38ZM591.04 64.38Q587.97 64.38 585.86 63.20Q583.74 62.02 582.72 60.13Q581.70 58.24 581.70 56.19L581.70 56.19Q581.70 54.08 582.69 52.51Q583.68 50.94 585.09 50.24L585.09 50.24Q587.58 45.76 589.44 41.18Q591.30 36.61 592.96 31.30L592.96 31.30L602.43 30.02Q602.75 38.21 603.52 47.74L603.52 47.74Q603.84 51.58 603.84 53.31L603.84 53.31Q603.84 54.78 603.58 55.74L603.58 55.74Q606.59 54.02 608.19 52.54L608.19 52.54L610.88 52.54Q606.78 57.28 601.09 60.54L601.09 60.54Q599.23 62.53 596.51 63.46Q593.79 64.38 591.04 64.38L591.04 64.38ZM588.99 59.33Q591.36 59.33 592.96 57.92Q594.56 56.51 594.56 53.38L594.56 53.38Q594.56 51.46 594.18 48L594.18 48Q593.54 40.70 593.34 38.21L593.34 38.21Q591.81 43.26 588.16 50.30L588.16 50.30Q589.63 51.07 589.63 52.54L589.63 52.54Q589.63 53.76 588.83 54.72Q588.03 55.68 586.82 55.68L586.82 55.68Q585.47 55.68 585.09 54.85L585.09 54.85Q585.09 57.15 586.02 58.24Q586.94 59.33 588.99 59.33L588.99 59.33ZM614.53 64.38Q611.46 64.38 609.57 62.46Q607.68 60.54 607.68 56.70L607.68 56.70Q607.68 55.10 608.19 52.54L608.19 52.54L612.03 34.56L609.92 34.56L610.43 32L612.54 32L614.46 23.17L623.94 21.89L621.76 32L625.60 32L625.09 34.56L621.25 34.56L617.15 53.76Q616.90 54.72 616.90 55.81L616.90 55.81Q616.90 57.09 617.50 57.63Q618.11 58.18 619.52 58.18L619.52 58.18Q621.38 58.18 622.98 56.61Q624.58 55.04 625.28 52.54L625.28 52.54L627.97 52.54Q625.60 59.46 621.89 61.92Q618.18 64.38 614.53 64.38L614.53 64.38ZM622.85 64L629.63 32L638.85 32L638.02 35.97Q640.19 34.05 641.95 33.02Q643.71 32 645.76 32L645.76 32Q647.81 32 648.99 33.41Q650.18 34.82 650.18 36.80L650.18 36.80Q650.18 38.66 648.96 40.06Q647.74 41.47 645.57 41.47L645.57 41.47Q644.16 41.47 643.68 40.80Q643.20 40.13 642.94 38.85L642.94 38.85Q642.75 38.02 642.56 37.63Q642.37 37.25 641.86 37.25L641.86 37.25Q640.51 37.25 639.58 37.79Q638.66 38.34 637.18 39.68L637.18 39.68L632.06 64L622.85 64ZM659.33 80Q656.26 80 654.21 78.40Q652.16 76.80 652.16 73.79L652.16 73.79Q652.16 70.14 655.10 67.94Q658.05 65.73 662.59 64.26L662.59 64.26L663.36 60.80Q661.50 62.85 659.58 63.62Q657.66 64.38 655.68 64.38L655.68 64.38Q652.61 64.38 650.72 62.46Q648.83 60.54 648.83 56.70L648.83 56.70Q648.83 55.10 649.34 52.54L649.34 52.54L653.70 32L662.91 32L658.30 53.76Q658.11 54.53 658.11 55.36L658.11 55.36Q658.11 58.18 660.03 58.18L660.03 58.18Q661.70 58.18 662.98 56.74Q664.26 55.30 665.02 52.93L665.02 52.93L669.50 32L678.72 32L672.38 61.70Q675.46 60.67 677.31 58.62Q679.17 56.58 680.45 52.54L680.45 52.54L683.14 52.54Q681.41 58.24 678.46 60.90Q675.52 63.55 671.81 64.51L671.81 64.51L670.85 69.12Q669.57 75.33 666.43 77.66Q663.30 80 659.33 80L659.33 80ZM657.86 75.01Q658.94 75.01 659.97 73.54Q660.99 72.06 661.57 69.31L661.57 69.31L661.95 67.46Q655.68 69.76 655.68 72.90L655.68 72.90Q655.68 73.73 656.26 74.37Q656.83 75.01 657.86 75.01L657.86 75.01Z" transform="translate(0, 0)"></path></g></svg></svg>