<?xml version="1.0" encoding="UTF-8" standalone="no"?>
<!DOCTYPE svg PUBLIC "-//W3C//DTD SVG 1.1//EN" "http://www.w3.org/Graphics/SVG/1.1/DTD/svg11.dtd">
<svg width="100%" height="100%" viewBox="0 0 535 261" version="1.1" xmlns="http://www.w3.org/2000/svg" xmlns:xlink="http://www.w3.org/1999/xlink" xml:space="preserve" xmlns:serif="http://www.serif.com/" style="fill-rule:evenodd;clip-rule:evenodd;stroke-linejoin:round;stroke-miterlimit:2;">
    <g transform="matrix(1,0,0,1,-20.8579,-153.102)">
        <g>
            <g transform="matrix(0.761757,0,0,0.761757,29.9666,254.359)">
                <g id="Layer_1">
                    <path d="M145.238,26.334L186.01,63.215L145.457,12.822L136.224,24.683L111.339,-0L78.114,23.369L65.292,12.131L0.005,63.215L58.3,34.236L73.885,46.148L67.011,19.814L106.874,63.097L103.656,35.853L129.08,53.712L103.201,22.324L118.786,32.871L112.821,11.794L167.225,55.431L145.238,26.334Z" style="fill:rgb(38,34,98);fill-rule:nonzero;"/>
                </g>
            </g>
            <g transform="matrix(1,0,0,1,151.746,305.938)">
                <g>
                    <path d="M0.86,0.08L1.88,4.52L2,5.37L2.18,4.6L3.47,0.08L4.19,0.08L5.44,4.6L5.61,5.39L5.75,4.51L6.76,0.08L7.61,0.08L6.04,6.56L5.27,6.56L3.93,1.84L3.83,1.35L3.73,1.84L2.34,6.56L1.57,6.56L-0,0.08L0.86,0.08ZM19.37,0.08L19.37,6.56L18.51,6.56L18.51,3.57L15.24,3.57L15.24,6.56L14.39,6.56L14.39,0.08L15.24,0.08L15.24,2.87L18.51,2.87L18.51,0.08L19.37,0.08ZM30.37,2.87L30.37,3.57L27.57,3.57L27.57,5.86L30.83,5.86L30.83,6.56L26.71,6.56L26.71,0.08L30.78,0.08L30.78,0.79L27.57,0.79L27.57,2.87L30.37,2.87ZM41.5,6.56L40.09,3.94L38.57,3.94L38.57,6.56L37.71,6.56L37.71,0.08L39.86,0.08C40.587,0.08 41.147,0.247 41.54,0.58C41.933,0.913 42.13,1.397 42.13,2.03C42.13,2.437 42.02,2.79 41.8,3.09C41.58,3.39 41.277,3.613 40.89,3.76L42.41,6.51L42.41,6.56L41.5,6.56ZM38.57,0.79L38.57,3.24L39.88,3.24C40.307,3.24 40.643,3.13 40.89,2.91C41.143,2.69 41.27,2.397 41.27,2.03C41.27,1.63 41.15,1.323 40.91,1.11C40.67,0.897 40.327,0.79 39.88,0.79L38.57,0.79ZM52.81,2.87L52.81,3.57L50.01,3.57L50.01,5.86L53.27,5.86L53.27,6.56L49.15,6.56L49.15,0.08L53.22,0.08L53.22,0.79L50.01,0.79L50.01,2.87L52.81,2.87ZM71.81,3L71.81,3.7L69.1,3.7L69.1,6.56L68.24,6.56L68.24,0.08L72.25,0.08L72.25,0.79L69.1,0.79L69.1,3L71.81,3ZM82.54,6.56L81.92,4.87L79.21,4.87L78.6,6.56L77.72,6.56L80.19,0.08L80.94,0.08L83.42,6.56L82.54,6.56ZM80.57,1.14L79.47,4.17L81.67,4.17L80.57,1.14ZM91.03,0.08L91.03,6.56L90.18,6.56L90.18,0.08L91.03,0.08ZM102.77,0.08L102.77,0.79L100.69,0.79L100.69,6.56L99.84,6.56L99.84,0.79L97.76,0.79L97.76,0.08L102.77,0.08ZM114.53,0.08L114.53,6.56L113.68,6.56L113.68,3.57L110.41,3.57L110.41,6.56L109.56,6.56L109.56,0.08L110.41,0.08L110.41,2.87L113.68,2.87L113.68,0.08L114.53,0.08ZM134.74,3.34L134.74,5.71C134.52,6.023 134.213,6.257 133.82,6.41C133.433,6.57 132.977,6.65 132.45,6.65C131.923,6.65 131.457,6.527 131.05,6.28C130.637,6.033 130.32,5.68 130.1,5.22C129.873,4.767 129.757,4.237 129.75,3.63L129.75,3.07C129.75,2.097 129.98,1.34 130.44,0.8C130.893,0.267 131.533,0 132.36,0C133.033,0 133.577,0.17 133.99,0.51C134.403,0.857 134.653,1.347 134.74,1.98L133.89,1.98C133.73,1.127 133.22,0.7 132.36,0.7C131.787,0.7 131.353,0.9 131.06,1.3C130.767,1.7 130.617,2.283 130.61,3.05L130.61,3.58C130.61,4.3 130.777,4.877 131.11,5.31C131.443,5.737 131.893,5.95 132.46,5.95C132.78,5.95 133.06,5.913 133.3,5.84C133.54,5.773 133.737,5.653 133.89,5.48L133.89,4.03L132.4,4.03L132.4,3.34L134.74,3.34ZM145.77,6.56L144.37,3.94L142.85,3.94L142.85,6.56L141.99,6.56L141.99,0.08L144.13,0.08C144.863,0.08 145.427,0.247 145.82,0.58C146.213,0.913 146.41,1.397 146.41,2.03C146.41,2.437 146.3,2.79 146.08,3.09C145.86,3.39 145.557,3.613 145.17,3.76L146.69,6.51L146.69,6.56L145.77,6.56ZM142.85,0.79L142.85,3.24L144.16,3.24C144.587,3.24 144.923,3.13 145.17,2.91C145.423,2.69 145.55,2.397 145.55,2.03C145.55,1.63 145.43,1.323 145.19,1.11C144.95,0.897 144.607,0.79 144.16,0.79L142.85,0.79ZM158.41,3.12L158.41,3.53C158.41,4.163 158.303,4.717 158.09,5.19C157.877,5.663 157.573,6.023 157.18,6.27C156.793,6.523 156.337,6.65 155.81,6.65C155.303,6.65 154.853,6.523 154.46,6.27C154.067,6.023 153.76,5.667 153.54,5.2C153.32,4.733 153.207,4.197 153.2,3.59L153.2,3.12C153.2,2.5 153.31,1.95 153.53,1.47C153.743,0.997 154.05,0.633 154.45,0.38C154.843,0.127 155.297,0 155.81,0C156.323,0 156.78,0.123 157.18,0.37C157.573,0.623 157.877,0.987 158.09,1.46C158.303,1.933 158.41,2.487 158.41,3.12ZM157.56,3.59L157.56,3.11C157.56,2.343 157.407,1.757 157.1,1.35C156.793,0.937 156.363,0.73 155.81,0.73C155.27,0.73 154.843,0.937 154.53,1.35C154.223,1.757 154.063,2.327 154.05,3.06L154.05,3.53C154.05,4.277 154.207,4.863 154.52,5.29C154.833,5.71 155.263,5.92 155.81,5.92C156.363,5.92 156.793,5.72 157.1,5.32C157.4,4.92 157.553,4.343 157.56,3.59ZM165.89,0.08L166.92,4.52L167.04,5.37L167.22,4.6L168.51,0.08L169.23,0.08L170.48,4.6L170.65,5.39L170.79,4.51L171.8,0.08L172.65,0.08L171.08,6.56L170.31,6.56L168.97,1.84L168.87,1.35L168.77,1.84L167.38,6.56L166.61,6.56L165.04,0.08L165.89,0.08ZM181.34,3.67C180.607,3.463 180.073,3.207 179.74,2.9C179.407,2.593 179.24,2.213 179.24,1.76C179.24,1.253 179.443,0.833 179.85,0.5C180.257,0.167 180.787,0 181.44,0C181.887,0 182.283,0.083 182.63,0.25C182.977,0.423 183.247,0.66 183.44,0.96C183.633,1.267 183.73,1.6 183.73,1.96L182.87,1.96C182.87,1.567 182.743,1.257 182.49,1.03C182.243,0.81 181.893,0.7 181.44,0.7C181.02,0.7 180.693,0.793 180.46,0.98C180.22,1.16 180.1,1.417 180.1,1.75C180.1,2.01 180.213,2.233 180.44,2.42C180.66,2.6 181.04,2.767 181.58,2.92C182.12,3.067 182.54,3.233 182.84,3.42C183.147,3.6 183.373,3.813 183.52,4.06C183.667,4.3 183.74,4.583 183.74,4.91C183.74,5.437 183.537,5.857 183.13,6.17C182.717,6.49 182.167,6.65 181.48,6.65C181.04,6.65 180.627,6.563 180.24,6.39C179.853,6.223 179.557,5.99 179.35,5.69C179.137,5.397 179.03,5.06 179.03,4.68L179.89,4.68C179.89,5.073 180.037,5.383 180.33,5.61C180.617,5.837 181,5.95 181.48,5.95C181.933,5.95 182.28,5.857 182.52,5.67C182.76,5.49 182.88,5.24 182.88,4.92C182.88,4.607 182.77,4.363 182.55,4.19C182.323,4.017 181.92,3.843 181.34,3.67ZM202.94,6.56L202.32,4.87L199.61,4.87L199,6.56L198.12,6.56L200.59,0.08L201.34,0.08L203.82,6.56L202.94,6.56ZM200.96,1.14L199.87,4.17L202.07,4.17L200.96,1.14ZM215.49,0.08L215.49,6.56L214.63,6.56L211.37,1.57L211.37,6.56L210.52,6.56L210.52,0.08L211.37,0.08L214.64,5.1L214.64,0.08L215.49,0.08ZM224.63,6.56L222.84,6.56L222.84,0.08L224.66,0.08C225.227,0.08 225.727,0.207 226.16,0.46C226.593,0.707 226.927,1.06 227.16,1.52C227.393,1.98 227.513,2.507 227.52,3.1L227.52,3.52C227.52,4.127 227.403,4.66 227.17,5.12C226.93,5.58 226.593,5.933 226.16,6.18C225.72,6.427 225.21,6.553 224.63,6.56ZM224.69,0.79L223.69,0.79L223.69,5.86L224.59,5.86C225.25,5.86 225.763,5.657 226.13,5.25C226.49,4.837 226.67,4.253 226.67,3.5L226.67,3.12C226.67,2.387 226.5,1.817 226.16,1.41C225.813,1.003 225.323,0.797 224.69,0.79ZM247.7,0.08L247.7,6.56L246.84,6.56L246.84,3.57L243.57,3.57L243.57,6.56L242.72,6.56L242.72,0.08L243.57,0.08L243.57,2.87L246.84,2.87L246.84,0.08L247.7,0.08ZM258.7,2.87L258.7,3.57L255.9,3.57L255.9,5.86L259.16,5.86L259.16,6.56L255.04,6.56L255.04,0.08L259.11,0.08L259.11,0.79L255.9,0.79L255.9,2.87L258.7,2.87ZM270.24,6.56L269.62,4.87L266.91,4.87L266.3,6.56L265.42,6.56L267.89,0.08L268.64,0.08L271.12,6.56L270.24,6.56ZM268.27,1.14L267.17,4.17L269.37,4.17L268.27,1.14ZM281.6,6.56L280.19,3.94L278.67,3.94L278.67,6.56L277.81,6.56L277.81,0.08L279.96,0.08C280.687,0.08 281.247,0.247 281.64,0.58C282.033,0.913 282.23,1.397 282.23,2.03C282.23,2.437 282.12,2.79 281.9,3.09C281.687,3.39 281.383,3.613 280.99,3.76L282.51,6.51L282.51,6.56L281.6,6.56ZM278.67,0.79L278.67,3.24L279.98,3.24C280.407,3.24 280.743,3.13 280.99,2.91C281.243,2.69 281.37,2.397 281.37,2.03C281.37,1.63 281.25,1.323 281.01,1.11C280.77,0.897 280.427,0.79 279.98,0.79L278.67,0.79ZM293.37,0.08L293.37,0.79L291.29,0.79L291.29,6.56L290.44,6.56L290.44,0.79L288.36,0.79L288.36,0.08L293.37,0.08ZM302,3.67C301.267,3.463 300.733,3.207 300.4,2.9C300.067,2.593 299.9,2.213 299.9,1.76C299.9,1.253 300.103,0.833 300.51,0.5C300.917,0.167 301.447,0 302.1,0C302.547,0 302.943,0.083 303.29,0.25C303.637,0.423 303.907,0.66 304.1,0.96C304.293,1.267 304.39,1.6 304.39,1.96L303.53,1.96C303.53,1.567 303.403,1.257 303.15,1.03C302.903,0.81 302.553,0.7 302.1,0.7C301.68,0.7 301.35,0.793 301.11,0.98C300.877,1.16 300.76,1.417 300.76,1.75C300.76,2.01 300.873,2.233 301.1,2.42C301.32,2.6 301.7,2.767 302.24,2.92C302.78,3.067 303.2,3.233 303.5,3.42C303.807,3.6 304.033,3.813 304.18,4.06C304.327,4.3 304.4,4.583 304.4,4.91C304.4,5.437 304.197,5.857 303.79,6.17C303.377,6.49 302.827,6.65 302.14,6.65C301.7,6.65 301.287,6.563 300.9,6.39C300.513,6.223 300.217,5.99 300.01,5.69C299.797,5.397 299.69,5.06 299.69,4.68L300.55,4.68C300.55,5.073 300.697,5.383 300.99,5.61C301.277,5.837 301.66,5.95 302.14,5.95C302.593,5.95 302.94,5.857 303.18,5.67C303.42,5.49 303.54,5.24 303.54,4.92C303.54,4.607 303.43,4.363 303.21,4.19C302.983,4.017 302.58,3.843 302,3.67ZM323.31,4.5L324.17,4.5C324.09,5.187 323.837,5.717 323.41,6.09C322.983,6.463 322.417,6.65 321.71,6.65C320.95,6.65 320.337,6.377 319.87,5.83C319.41,5.277 319.18,4.54 319.18,3.62L319.18,3C319.18,2.4 319.29,1.87 319.51,1.41C319.723,0.957 320.027,0.607 320.42,0.36C320.813,0.12 321.27,0 321.79,0C322.477,0 323.027,0.19 323.44,0.57C323.86,0.957 324.103,1.49 324.17,2.17L323.31,2.17C323.237,1.65 323.077,1.277 322.83,1.05C322.583,0.817 322.237,0.7 321.79,0.7C321.243,0.7 320.817,0.9 320.51,1.3C320.197,1.707 320.04,2.28 320.04,3.02L320.04,3.65C320.04,4.35 320.187,4.91 320.48,5.33C320.773,5.743 321.183,5.95 321.71,5.95C322.183,5.95 322.547,5.843 322.8,5.63C323.053,5.417 323.223,5.04 323.31,4.5ZM336.14,3.12L336.14,3.53C336.14,4.163 336.033,4.717 335.82,5.19C335.607,5.663 335.303,6.023 334.91,6.27C334.523,6.523 334.07,6.65 333.55,6.65C333.037,6.65 332.583,6.523 332.19,6.27C331.797,6.023 331.49,5.667 331.27,5.2C331.05,4.733 330.937,4.197 330.93,3.59L330.93,3.12C330.93,2.5 331.04,1.95 331.26,1.47C331.473,0.997 331.78,0.633 332.18,0.38C332.573,0.127 333.027,0 333.54,0C334.053,0 334.51,0.123 334.91,0.37C335.303,0.623 335.607,0.987 335.82,1.46C336.033,1.933 336.14,2.487 336.14,3.12ZM335.29,3.59L335.29,3.11C335.29,2.343 335.137,1.757 334.83,1.35C334.523,0.937 334.093,0.73 333.54,0.73C333,0.73 332.573,0.937 332.26,1.35C331.953,1.757 331.793,2.327 331.78,3.06L331.78,3.53C331.78,4.277 331.937,4.863 332.25,5.29C332.563,5.71 332.997,5.92 333.55,5.92C334.097,5.92 334.523,5.72 334.83,5.32C335.13,4.92 335.283,4.343 335.29,3.59ZM348.23,0.08L348.23,6.56L347.37,6.56L344.11,1.57L344.11,6.56L343.25,6.56L343.25,0.08L344.11,0.08L347.38,5.1L347.38,0.08L348.23,0.08ZM360.55,0.08L360.55,6.56L359.69,6.56L356.43,1.57L356.43,6.56L355.57,6.56L355.57,0.08L356.43,0.08L359.7,5.1L359.7,0.08L360.55,0.08ZM371.55,2.87L371.55,3.57L368.75,3.57L368.75,5.86L372.01,5.86L372.01,6.56L367.89,6.56L367.89,0.08L371.96,0.08L371.96,0.79L368.75,0.79L368.75,2.87L371.55,2.87ZM382.8,4.5L383.66,4.5C383.58,5.187 383.327,5.717 382.9,6.09C382.48,6.463 381.917,6.65 381.21,6.65C380.443,6.65 379.83,6.377 379.37,5.83C378.91,5.277 378.68,4.54 378.68,3.62L378.68,3C378.68,2.4 378.787,1.87 379,1.41C379.213,0.957 379.517,0.607 379.91,0.36C380.303,0.12 380.76,0 381.28,0C381.967,0 382.52,0.19 382.94,0.57C383.353,0.957 383.593,1.49 383.66,2.17L382.8,2.17C382.727,1.65 382.567,1.277 382.32,1.05C382.073,0.817 381.727,0.7 381.28,0.7C380.733,0.7 380.307,0.9 380,1.3C379.693,1.707 379.54,2.28 379.54,3.02L379.54,3.65C379.54,4.35 379.687,4.91 379.98,5.33C380.273,5.743 380.683,5.95 381.21,5.95C381.683,5.95 382.047,5.843 382.3,5.63C382.553,5.417 382.72,5.04 382.8,4.5ZM395,0.08L395,0.79L392.92,0.79L392.92,6.56L392.07,6.56L392.07,0.79L389.99,0.79L389.99,0.08L395,0.08Z" style="fill:rgb(36,37,38);fill-rule:nonzero;"/>
                </g>
            </g>
            <g transform="matrix(1,0,0,1,163.228,264.708)">
                <g>
                    <path d="M1.76,23.94C1.247,23.94 0.827,23.773 0.5,23.44C0.167,23.113 0,22.657 0,22.07C0,21.743 0.067,21.377 0.2,20.97C0.327,20.557 0.543,20.117 0.85,19.65C1.39,18.803 2.087,17.86 2.94,16.82C3.793,15.773 4.7,14.737 5.66,13.71C6.62,12.677 7.53,11.733 8.39,10.88C9.243,10.027 9.927,9.363 10.44,8.89C10.673,8.19 10.903,7.463 11.13,6.71C11.35,5.963 11.577,5.19 11.81,4.39C11.157,5.003 10.413,5.46 9.58,5.76C8.747,6.067 7.967,6.243 7.24,6.29L7.21,6.29C6.977,6.29 6.86,6.21 6.86,6.05C6.86,5.857 7,5.75 7.28,5.73C7.96,5.657 8.663,5.393 9.39,4.94C10.117,4.48 10.79,3.893 11.41,3.18C12.03,2.467 12.503,1.7 12.83,0.88C12.877,0.74 13.037,0.633 13.31,0.56C13.577,0.493 13.863,0.46 14.17,0.46C14.43,0.46 14.657,0.487 14.85,0.54C15.05,0.6 15.127,0.713 15.08,0.88C14.66,1.96 14.25,2.997 13.85,3.99C13.457,4.983 13.07,5.95 12.69,6.89C14.077,5.717 15.373,4.737 16.58,3.95C17.787,3.17 18.763,2.757 19.51,2.71C20.85,2.637 21.9,2.857 22.66,3.37C23.42,3.89 23.957,4.577 24.27,5.43C24.59,6.283 24.75,7.19 24.75,8.15C24.75,8.39 24.743,8.613 24.73,8.82C24.717,9.033 24.7,9.243 24.68,9.45C24.56,10.53 24.327,11.763 23.98,13.15C23.627,14.53 23.25,15.817 22.85,17.01C22.803,17.13 22.733,17.337 22.64,17.63C22.547,17.923 22.537,18.07 22.61,18.07C22.63,18.07 22.747,17.917 22.96,17.61C23.547,16.65 24.113,15.707 24.66,14.78C25.213,13.853 25.807,12.9 26.44,11.92C27.373,10.467 28.397,9 29.51,7.52C30.623,6.047 31.743,4.723 32.87,3.55C33.317,3.083 33.78,2.733 34.26,2.5C34.74,2.26 35.19,2.14 35.61,2.14C36.077,2.14 36.47,2.3 36.79,2.62C37.103,2.933 37.26,3.42 37.26,4.08C37.26,4.24 37.243,4.42 37.21,4.62C37.177,4.82 37.137,5.037 37.09,5.27C36.81,6.397 36.48,7.43 36.1,8.37C35.727,9.303 35.353,10.22 34.98,11.12C34.607,12.027 34.273,12.97 33.98,13.95C33.687,14.937 33.48,16.027 33.36,17.22C33.34,17.433 33.323,17.633 33.31,17.82C33.297,18.007 33.29,18.183 33.29,18.35C33.29,19.143 33.407,19.723 33.64,20.09C33.873,20.45 34.18,20.63 34.56,20.63C35,20.63 35.52,20.437 36.12,20.05C36.72,19.663 37.323,19.183 37.93,18.61C38.537,18.037 39.087,17.473 39.58,16.92C40.073,16.373 40.437,15.937 40.67,15.61C40.717,15.537 40.787,15.5 40.88,15.5C40.973,15.5 41.057,15.537 41.13,15.61C41.197,15.677 41.197,15.77 41.13,15.89C40.823,16.357 40.397,16.9 39.85,17.52C39.297,18.14 38.72,18.737 38.12,19.31C37.527,19.89 36.993,20.353 36.52,20.7C36.173,20.96 35.77,21.173 35.31,21.34C34.857,21.5 34.407,21.58 33.96,21.58C33.447,21.58 32.977,21.453 32.55,21.2C32.13,20.94 31.837,20.493 31.67,19.86C31.603,19.627 31.557,19.38 31.53,19.12C31.51,18.86 31.5,18.59 31.5,18.31C31.5,17.33 31.64,16.237 31.92,15.03C32.2,13.823 32.55,12.617 32.97,11.41C33.397,10.203 33.803,9.1 34.19,8.1C34.577,7.107 34.873,6.317 35.08,5.73C35.247,5.403 35.33,5.1 35.33,4.82C35.33,4.327 35.12,4.08 34.7,4.08C34.347,4.08 33.937,4.277 33.47,4.67C32.79,5.257 32.043,6.02 31.23,6.96C30.423,7.9 29.603,8.93 28.77,10.05C27.943,11.177 27.137,12.33 26.35,13.51C25.563,14.697 24.847,15.833 24.2,16.92C23.56,18.013 23.04,18.98 22.64,19.82C22.473,20.173 22.287,20.35 22.08,20.35C21.913,20.35 21.753,20.247 21.6,20.04C21.453,19.827 21.337,19.597 21.25,19.35C21.17,19.103 21.153,18.933 21.2,18.84C21.507,18.093 21.787,17.173 22.04,16.08C22.3,14.993 22.513,13.833 22.68,12.6C22.84,11.373 22.92,10.197 22.92,9.07C22.92,7.57 22.733,6.297 22.36,5.25C21.987,4.21 21.33,3.69 20.39,3.69C19.783,3.69 19.01,3.947 18.07,4.46C17.13,4.98 16.117,5.673 15.03,6.54C13.943,7.407 12.823,8.367 11.67,9.42C11.463,9.933 11.153,10.683 10.74,11.67C10.333,12.657 9.853,13.747 9.3,14.94C8.747,16.133 8.137,17.323 7.47,18.51C6.803,19.69 6.12,20.727 5.42,21.62C4.787,22.413 4.153,22.997 3.52,23.37C2.887,23.75 2.3,23.94 1.76,23.94ZM1.94,22.71C2.547,22.71 3.173,22.387 3.82,21.74C4.46,21.093 5.103,20.273 5.75,19.28C6.397,18.287 6.99,17.25 7.53,16.17C8.063,15.09 8.523,14.093 8.91,13.18C9.297,12.267 9.573,11.587 9.74,11.14C9.087,11.773 8.397,12.47 7.67,13.23C6.943,13.997 6.233,14.77 5.54,15.55C4.847,16.337 4.22,17.07 3.66,17.75C3.1,18.43 2.653,18.993 2.32,19.44C1.947,19.953 1.673,20.417 1.5,20.83C1.32,21.237 1.23,21.593 1.23,21.9C1.23,22.44 1.467,22.71 1.94,22.71ZM43.31,21.62C42.65,21.62 42.077,21.467 41.59,21.16C40.77,20.667 40.36,19.777 40.36,18.49C40.36,17.95 40.453,17.33 40.64,16.63C40.8,16.043 41.093,15.403 41.52,14.71C41.94,14.017 42.437,13.353 43.01,12.72C43.583,12.087 44.21,11.573 44.89,11.18C45.57,10.78 46.25,10.58 46.93,10.58C47.21,10.58 47.457,10.617 47.67,10.69C47.95,10.783 48.19,10.95 48.39,11.19C48.59,11.437 48.69,11.75 48.69,12.13C48.69,12.523 48.59,12.743 48.39,12.79C48.19,12.837 48.09,12.79 48.09,12.65C48.09,12.603 48.097,12.557 48.11,12.51C48.117,12.463 48.12,12.43 48.12,12.41C48.12,12.223 48.07,12.053 47.97,11.9C47.863,11.747 47.67,11.67 47.39,11.67C47.01,11.67 46.547,11.87 46,12.27C45.447,12.663 44.883,13.197 44.31,13.87C43.737,14.537 43.233,15.267 42.8,16.06C42.367,16.86 42.08,17.657 41.94,18.45C41.913,18.57 41.897,18.683 41.89,18.79C41.877,18.897 41.87,19.007 41.87,19.12C41.87,19.66 41.993,20.11 42.24,20.47C42.487,20.837 42.877,21.02 43.41,21.02C44.07,21.02 44.703,20.767 45.31,20.26C45.923,19.76 46.47,19.157 46.95,18.45C47.43,17.75 47.787,17.13 48.02,16.59C48.207,16.17 48.337,15.807 48.41,15.5C48.477,15.193 48.51,14.937 48.51,14.73C48.51,14.543 48.493,14.38 48.46,14.24C48.427,14.093 48.387,13.973 48.34,13.88C48.293,13.74 48.27,13.637 48.27,13.57C48.27,13.383 48.343,13.23 48.49,13.11C48.643,12.99 48.803,12.93 48.97,12.93C49.11,12.93 49.263,12.98 49.43,13.08C49.617,13.127 49.873,13.16 50.2,13.18C50.527,13.207 50.877,13.22 51.25,13.22C51.65,13.22 52.057,13.207 52.47,13.18C52.877,13.16 53.233,13.113 53.54,13.04C53.587,13.02 53.657,13.01 53.75,13.01C53.91,13.01 53.99,13.057 53.99,13.15C53.99,13.243 53.91,13.323 53.75,13.39C52.93,13.763 52.197,13.963 51.55,13.99C50.903,14.01 50.347,14.02 49.88,14.02C49.927,14.607 49.8,15.233 49.5,15.9C49.193,16.573 48.877,17.167 48.55,17.68C48.15,18.267 47.693,18.863 47.18,19.47C46.66,20.083 46.083,20.593 45.45,21C44.817,21.413 44.103,21.62 43.31,21.62ZM54.84,21.58C54.42,21.58 54.04,21.487 53.7,21.3C53.36,21.113 53.107,20.763 52.94,20.25C52.913,20.177 52.897,20.107 52.89,20.04C52.877,19.967 52.87,19.883 52.87,19.79C52.87,19.323 52.977,18.737 53.19,18.03C53.397,17.33 53.653,16.65 53.96,15.99C53.82,16.177 53.657,16.407 53.47,16.68C53.283,16.947 53.013,17.293 52.66,17.72C52.567,17.813 52.46,17.86 52.34,17.86C52.18,17.86 52.1,17.763 52.1,17.57C52.1,17.43 52.147,17.313 52.24,17.22C52.847,16.447 53.39,15.757 53.87,15.15C54.35,14.543 54.707,14.027 54.94,13.6C54.94,13.553 55.01,13.407 55.15,13.16C55.297,12.913 55.487,12.57 55.72,12.13C55.533,12.15 55.373,12.167 55.24,12.18C55.113,12.193 55.003,12.2 54.91,12.2C54.743,12.2 54.603,12.13 54.49,11.99C54.37,11.843 54.357,11.667 54.45,11.46C54.57,11.133 54.827,10.947 55.22,10.9C55.62,10.853 55.973,10.817 56.28,10.79C56.3,10.743 56.347,10.72 56.42,10.72C56.7,10.207 56.97,9.703 57.23,9.21C57.49,8.717 57.707,8.307 57.88,7.98C58.053,7.653 58.14,7.477 58.14,7.45C58.613,6.703 58.92,6.207 59.06,5.96C59.2,5.713 59.387,5.567 59.62,5.52C59.88,5.493 60.153,5.503 60.44,5.55C60.733,5.597 60.927,5.703 61.02,5.87C61.093,5.963 61.13,6.08 61.13,6.22C61.13,6.433 61.083,6.64 60.99,6.84C60.897,7.033 60.803,7.19 60.71,7.31C60.617,7.477 60.493,7.587 60.34,7.64C60.187,7.7 60.05,7.847 59.93,8.08C59.697,8.527 59.44,9.01 59.16,9.53C58.88,10.043 58.587,10.533 58.28,11L58.7,10.97C59.267,10.923 59.8,10.863 60.3,10.79C60.807,10.723 61.387,10.7 62.04,10.72C62.16,10.72 62.283,10.737 62.41,10.77C62.543,10.81 62.61,10.863 62.61,10.93C62.61,11.023 62.303,11.153 61.69,11.32C61.457,11.413 60.947,11.513 60.16,11.62C59.38,11.72 58.58,11.82 57.76,11.92C57.52,12.36 57.307,12.727 57.12,13.02C56.933,13.313 56.807,13.53 56.74,13.67C56.22,14.75 55.757,15.73 55.35,16.61C54.937,17.49 54.707,18.21 54.66,18.77C54.64,18.863 54.63,18.95 54.63,19.03L54.63,19.3C54.63,20.233 54.933,20.7 55.54,20.7C55.913,20.7 56.393,20.497 56.98,20.09C57.567,19.677 58.163,19.173 58.77,18.58C59.383,17.98 59.94,17.403 60.44,16.85C60.947,16.303 61.293,15.89 61.48,15.61C61.553,15.537 61.623,15.5 61.69,15.5C61.783,15.5 61.86,15.537 61.92,15.61C61.98,15.677 61.987,15.77 61.94,15.89C61.727,16.283 61.37,16.78 60.87,17.38C60.363,17.98 59.8,18.577 59.18,19.17C58.56,19.77 57.957,20.28 57.37,20.7C57.063,20.933 56.683,21.14 56.23,21.32C55.77,21.493 55.307,21.58 54.84,21.58ZM63.66,21.58C62.673,21.58 61.987,21.333 61.6,20.84C61.213,20.353 61.02,19.747 61.02,19.02C61.02,18.34 61.18,17.483 61.5,16.45C61.813,15.417 62.23,14.303 62.75,13.11C63.263,11.917 63.82,10.727 64.42,9.54C65.013,8.36 65.61,7.27 66.21,6.27C66.81,5.277 67.33,4.477 67.77,3.87C68.217,3.283 68.697,2.697 69.21,2.11C69.73,1.523 70.307,1.03 70.94,0.63C71.573,0.23 72.287,0.03 73.08,0.03C73.62,0.03 74.083,0.177 74.47,0.47C74.857,0.763 75.05,1.203 75.05,1.79C75.05,2.023 75.01,2.293 74.93,2.6C74.843,2.907 74.707,3.223 74.52,3.55C73.093,6.037 71.39,8.333 69.41,10.44C67.43,12.547 65.337,14.503 63.13,16.31C63.037,16.663 62.95,16.98 62.87,17.26C62.79,17.54 62.727,17.763 62.68,17.93C62.653,18.043 62.64,18.167 62.64,18.3L62.64,18.66C62.64,19.227 62.733,19.72 62.92,20.14C63.107,20.56 63.423,20.77 63.87,20.77C64.29,20.77 64.813,20.567 65.44,20.16C66.06,19.747 66.687,19.243 67.32,18.65C67.953,18.05 68.527,17.47 69.04,16.91C69.553,16.343 69.917,15.91 70.13,15.61C70.197,15.537 70.267,15.5 70.34,15.5C70.433,15.5 70.51,15.547 70.57,15.64C70.63,15.733 70.623,15.85 70.55,15.99C70.317,16.39 69.943,16.883 69.43,17.47C68.91,18.057 68.333,18.647 67.7,19.24C67.067,19.84 66.46,20.363 65.88,20.81C65.153,21.323 64.413,21.58 63.66,21.58ZM63.63,14.9C64.517,14.293 65.44,13.503 66.4,12.53C67.36,11.557 68.303,10.497 69.23,9.35C70.157,8.203 71,7.067 71.76,5.94C72.527,4.813 73.143,3.793 73.61,2.88C73.75,2.627 73.85,2.4 73.91,2.2C73.97,2 74,1.817 74,1.65C74,1.203 73.81,0.98 73.43,0.98C73.103,0.98 72.693,1.157 72.2,1.51C70.933,2.497 69.763,3.757 68.69,5.29C67.61,6.823 66.65,8.433 65.81,10.12C64.963,11.807 64.237,13.4 63.63,14.9ZM72.73,21.62C72.077,21.62 71.503,21.467 71.01,21.16C70.19,20.667 69.78,19.777 69.78,18.49C69.78,17.95 69.873,17.33 70.06,16.63C70.22,16.043 70.513,15.403 70.94,14.71C71.36,14.017 71.857,13.353 72.43,12.72C73.003,12.087 73.63,11.573 74.31,11.18C74.99,10.78 75.67,10.58 76.35,10.58C76.63,10.58 76.877,10.617 77.09,10.69C77.37,10.783 77.61,10.95 77.81,11.19C78.01,11.437 78.11,11.75 78.11,12.13C78.11,12.523 78.01,12.743 77.81,12.79C77.61,12.837 77.51,12.79 77.51,12.65C77.51,12.603 77.517,12.557 77.53,12.51C77.543,12.463 77.55,12.43 77.55,12.41C77.55,12.223 77.497,12.053 77.39,11.9C77.283,11.747 77.09,11.67 76.81,11.67C76.43,11.67 75.967,11.87 75.42,12.27C74.867,12.663 74.303,13.197 73.73,13.87C73.157,14.537 72.653,15.267 72.22,16.06C71.787,16.86 71.5,17.657 71.36,18.45C71.333,18.57 71.317,18.683 71.31,18.79C71.297,18.897 71.29,19.007 71.29,19.12C71.29,19.66 71.413,20.11 71.66,20.47C71.907,20.837 72.3,21.02 72.84,21.02C73.493,21.02 74.123,20.767 74.73,20.26C75.343,19.76 75.89,19.157 76.37,18.45C76.85,17.75 77.207,17.13 77.44,16.59C77.627,16.17 77.757,15.807 77.83,15.5C77.897,15.193 77.93,14.937 77.93,14.73C77.93,14.543 77.913,14.38 77.88,14.24C77.847,14.093 77.807,13.973 77.76,13.88C77.713,13.74 77.69,13.637 77.69,13.57C77.69,13.383 77.763,13.23 77.91,13.11C78.063,12.99 78.223,12.93 78.39,12.93C78.53,12.93 78.683,12.98 78.85,13.08C79.037,13.127 79.293,13.16 79.62,13.18C79.947,13.207 80.297,13.22 80.67,13.22C81.07,13.22 81.477,13.207 81.89,13.18C82.297,13.16 82.653,13.113 82.96,13.04C83.007,13.02 83.077,13.01 83.17,13.01C83.337,13.01 83.42,13.057 83.42,13.15C83.42,13.243 83.337,13.323 83.17,13.39C82.35,13.763 81.617,13.963 80.97,13.99C80.33,14.01 79.773,14.02 79.3,14.02C79.347,14.607 79.22,15.233 78.92,15.9C78.613,16.573 78.297,17.167 77.97,17.68C77.57,18.267 77.113,18.863 76.6,19.47C76.08,20.083 75.503,20.593 74.87,21C74.237,21.413 73.523,21.62 72.73,21.62ZM92.34,21.34C91.9,21.34 91.49,21.24 91.11,21.04C90.737,20.84 90.467,20.493 90.3,20C90.14,19.46 90.06,18.793 90.06,18C90.06,17.6 90.09,17.193 90.15,16.78C90.203,16.373 90.28,16.017 90.38,15.71C90.26,15.923 90.037,16.317 89.71,16.89C89.383,17.463 88.973,18.083 88.48,18.75C87.987,19.417 87.43,19.99 86.81,20.47C86.19,20.957 85.517,21.2 84.79,21.2C83.85,21.2 83.203,20.957 82.85,20.47C82.503,19.99 82.33,19.41 82.33,18.73C82.33,17.91 82.5,17.063 82.84,16.19C83.18,15.31 83.523,14.61 83.87,14.09C84.037,13.857 84.283,13.507 84.61,13.04C84.937,12.573 85.26,12.133 85.58,11.72C85.893,11.313 86.11,11.087 86.23,11.04C86.37,10.993 86.52,10.957 86.68,10.93C86.847,10.91 87.013,10.9 87.18,10.9C87.553,10.9 87.857,10.97 88.09,11.11C88.323,11.177 88.44,11.293 88.44,11.46C88.44,11.527 88.383,11.62 88.27,11.74C88.01,11.953 87.6,12.377 87.04,13.01C86.473,13.637 85.917,14.357 85.37,15.17C84.817,15.977 84.4,16.777 84.12,17.57C83.813,18.323 83.66,18.947 83.66,19.44C83.66,20.14 83.917,20.49 84.43,20.49C84.923,20.49 85.627,20.127 86.54,19.4C87.2,18.887 87.833,18.243 88.44,17.47C89.053,16.697 89.623,15.883 90.15,15.03C90.677,14.17 91.15,13.377 91.57,12.65C91.643,12.49 91.843,12.41 92.17,12.41C92.57,12.41 92.963,12.497 93.35,12.67C93.737,12.843 93.847,13.05 93.68,13.29C93,14.39 92.483,15.573 92.13,16.84C92.063,17.12 91.987,17.463 91.9,17.87C91.82,18.283 91.78,18.69 91.78,19.09C91.78,19.51 91.85,19.873 91.99,20.18C92.13,20.48 92.39,20.63 92.77,20.63C92.957,20.63 93.15,20.6 93.35,20.54C93.543,20.487 93.77,20.377 94.03,20.21C94.923,19.743 95.797,19.107 96.65,18.3C97.503,17.487 98.26,16.583 98.92,15.59C99.573,14.59 100.007,13.61 100.22,12.65C100.287,12.37 100.32,12.03 100.32,11.63C100.32,11.163 100.243,10.713 100.09,10.28C99.943,9.847 99.67,9.547 99.27,9.38C99.13,9.333 98.977,9.307 98.81,9.3C98.65,9.287 98.473,9.29 98.28,9.31L98.21,9.31C98.097,9.31 98.04,9.253 98.04,9.14C98.04,9.02 98.097,8.937 98.21,8.89C98.497,8.823 98.86,8.79 99.3,8.79C99.727,8.79 100.157,8.86 100.59,9C101.023,9.14 101.32,9.41 101.48,9.81C101.667,10.25 101.76,10.693 101.76,11.14C101.76,12.007 101.51,12.933 101.01,13.92C100.503,14.907 99.863,15.857 99.09,16.77C98.483,17.517 97.803,18.22 97.05,18.88C96.303,19.533 95.66,20.047 95.12,20.42C94.813,20.653 94.41,20.863 93.91,21.05C93.403,21.243 92.88,21.34 92.34,21.34ZM116.25,22.85C115.03,22.85 113.91,22.643 112.89,22.23C111.87,21.823 111.06,21.19 110.46,20.33C109.867,19.477 109.57,18.383 109.57,17.05C109.57,16.297 109.673,15.487 109.88,14.62C110.213,13.24 110.76,11.857 111.52,10.47C112.28,9.09 113.193,7.79 114.26,6.57C115.327,5.35 116.493,4.267 117.76,3.32C119.027,2.373 120.333,1.623 121.68,1.07C123.027,0.523 124.367,0.25 125.7,0.25C126.1,0.25 126.51,0.283 126.93,0.35C127.87,0.517 128.567,0.863 129.02,1.39C129.48,1.917 129.71,2.52 129.71,3.2C129.71,3.993 129.453,4.79 128.94,5.59C128.42,6.383 127.743,7.14 126.91,7.86C126.083,8.573 125.183,9.21 124.21,9.77C123.237,10.33 122.28,10.787 121.34,11.14C120.407,11.493 119.577,11.693 118.85,11.74C118.403,11.76 118.18,11.63 118.18,11.35C118.18,11.21 118.257,11.063 118.41,10.91C118.563,10.763 118.78,10.677 119.06,10.65C120.887,10.483 122.59,9.927 124.17,8.98C125.75,8.033 126.963,6.74 127.81,5.1C127.997,4.747 128.143,4.387 128.25,4.02C128.357,3.66 128.41,3.317 128.41,2.99C128.41,2.47 128.263,2.03 127.97,1.67C127.677,1.303 127.167,1.12 126.44,1.12C125.64,1.12 124.703,1.36 123.63,1.84C122.55,2.327 121.42,3.003 120.24,3.87C119.053,4.737 117.893,5.76 116.76,6.94C115.62,8.127 114.6,9.417 113.7,10.81C112.793,12.203 112.097,13.673 111.61,15.22C111.303,16.16 111.15,17.027 111.15,17.82C111.15,19.247 111.643,20.297 112.63,20.97C113.61,21.637 114.887,21.97 116.46,21.97C117.82,21.97 119.313,21.737 120.94,21.27C122.567,20.797 124.153,20.073 125.7,19.1C127.247,18.127 128.547,16.893 129.6,15.4C129.673,15.3 129.757,15.25 129.85,15.25C129.943,15.25 130.03,15.3 130.11,15.4C130.197,15.493 130.203,15.587 130.13,15.68C128.91,17.367 127.51,18.737 125.93,19.79C124.35,20.843 122.717,21.617 121.03,22.11C119.343,22.603 117.75,22.85 116.25,22.85ZM134,21.65C133.6,21.65 133.247,21.563 132.94,21.39C132.64,21.21 132.43,20.877 132.31,20.39C132.237,20.13 132.2,19.87 132.2,19.61C132.2,18.91 132.383,18.227 132.75,17.56C133.11,16.893 133.537,16.27 134.03,15.69C134.523,15.117 134.947,14.633 135.3,14.24C135.487,14.047 135.703,13.8 135.95,13.5C136.197,13.193 136.32,12.887 136.32,12.58C136.32,12.393 136.227,12.213 136.04,12.04C135.847,11.86 135.507,11.737 135.02,11.67C134.733,11.623 134.47,11.583 134.23,11.55C133.983,11.51 133.73,11.49 133.47,11.49C132.817,12.383 132.177,13.28 131.55,14.18C130.93,15.087 130.27,15.973 129.57,16.84C129.403,17 129.263,17.08 129.15,17.08C129.01,17.08 128.94,17.01 128.94,16.87C128.94,16.73 129.01,16.59 129.15,16.45C130.41,14.903 131.497,13.25 132.41,11.49C132.297,11.49 132.123,11.487 131.89,11.48C131.657,11.467 131.47,11.447 131.33,11.42C131.163,11.373 131.033,11.303 130.94,11.21C130.847,11.117 130.8,11.023 130.8,10.93C130.8,10.79 130.857,10.71 130.97,10.69C131.277,10.59 131.607,10.447 131.96,10.26C132.313,10.073 132.64,9.83 132.94,9.53C133.267,9.197 133.573,8.85 133.86,8.49C134.14,8.123 134.36,7.847 134.52,7.66C134.687,7.547 134.863,7.49 135.05,7.49C135.17,7.49 135.283,7.523 135.39,7.59C135.49,7.663 135.54,7.77 135.54,7.91C135.54,8.07 135.47,8.28 135.33,8.54C135.123,8.867 134.897,9.23 134.65,9.63C134.403,10.03 134.173,10.393 133.96,10.72C134.38,10.747 134.803,10.77 135.23,10.79C135.65,10.817 136.083,10.83 136.53,10.83C136.763,10.83 136.99,10.823 137.21,10.81C137.437,10.797 137.667,10.79 137.9,10.79C138.6,10.79 138.95,10.967 138.95,11.32C138.95,11.553 138.827,11.84 138.58,12.18C138.333,12.52 138.037,12.89 137.69,13.29C136.89,14.203 136.21,15.163 135.65,16.17C135.09,17.177 134.713,17.95 134.52,18.49C134.333,19.05 134.24,19.47 134.24,19.75C134.24,20.317 134.463,20.6 134.91,20.6C135.31,20.6 135.797,20.4 136.37,20C136.943,19.6 137.533,19.113 138.14,18.54C138.753,17.967 139.307,17.403 139.8,16.85C140.287,16.303 140.637,15.89 140.85,15.61C140.897,15.537 140.967,15.5 141.06,15.5C141.153,15.5 141.237,15.54 141.31,15.62C141.377,15.707 141.377,15.807 141.31,15.92C141.05,16.32 140.673,16.82 140.18,17.42C139.693,18.013 139.143,18.603 138.53,19.19C137.923,19.777 137.327,20.28 136.74,20.7C136.433,20.933 136.017,21.15 135.49,21.35C134.963,21.55 134.467,21.65 134,21.65ZM143.94,21.76C142.887,21.76 141.973,21.513 141.2,21.02C140.427,20.527 140.04,19.777 140.04,18.77C140.04,18.23 140.203,17.573 140.53,16.8C140.77,16.26 141.207,15.64 141.84,14.94C142.467,14.233 143.203,13.547 144.05,12.88C144.897,12.213 145.753,11.663 146.62,11.23C147.487,10.797 148.27,10.58 148.97,10.58C149.23,10.58 149.463,10.617 149.67,10.69C150.07,10.83 150.347,11.05 150.5,11.35C150.653,11.657 150.73,11.973 150.73,12.3C150.73,12.607 150.683,12.9 150.59,13.18C150.497,13.46 150.38,13.707 150.24,13.92C149.813,14.553 149.21,15.117 148.43,15.61C147.643,16.097 146.847,16.483 146.04,16.77C145.227,17.05 144.563,17.213 144.05,17.26L143.98,17.26C143.673,17.26 143.52,17.167 143.52,16.98C143.52,16.86 143.613,16.8 143.8,16.8C144.367,16.753 145.077,16.49 145.93,16.01C146.783,15.53 147.54,15.033 148.2,14.52C148.48,14.287 148.813,13.957 149.2,13.53C149.587,13.11 149.78,12.7 149.78,12.3C149.78,11.88 149.58,11.67 149.18,11.67C148.973,11.67 148.757,11.717 148.53,11.81C148.31,11.903 148.13,11.973 147.99,12.02C147.31,12.347 146.56,12.857 145.74,13.55C144.92,14.243 144.173,15.017 143.5,15.87C142.833,16.723 142.373,17.583 142.12,18.45C142.047,18.637 142,18.82 141.98,19C141.953,19.173 141.94,19.343 141.94,19.51C141.94,20.07 142.123,20.467 142.49,20.7C142.85,20.933 143.287,21.05 143.8,21.05C144.573,21.05 145.37,20.88 146.19,20.54C147.01,20.207 147.807,19.77 148.58,19.23C149.353,18.69 150.063,18.11 150.71,17.49C151.357,16.87 151.903,16.267 152.35,15.68C152.417,15.587 152.497,15.533 152.59,15.52C152.683,15.507 152.743,15.523 152.77,15.57C152.863,15.597 152.91,15.66 152.91,15.76C152.91,15.867 152.887,15.967 152.84,16.06C152.18,16.973 151.387,17.863 150.46,18.73C149.54,19.603 148.523,20.327 147.41,20.9C146.297,21.473 145.14,21.76 143.94,21.76ZM155.51,21.76C154.457,21.76 153.543,21.513 152.77,21.02C151.997,20.527 151.61,19.777 151.61,18.77C151.61,18.23 151.773,17.573 152.1,16.8C152.333,16.26 152.767,15.64 153.4,14.94C154.033,14.233 154.77,13.547 155.61,12.88C156.457,12.213 157.313,11.663 158.18,11.23C159.047,10.797 159.833,10.58 160.54,10.58C160.793,10.58 161.027,10.617 161.24,10.69C161.64,10.83 161.913,11.05 162.06,11.35C162.213,11.657 162.29,11.973 162.29,12.3C162.29,12.607 162.243,12.9 162.15,13.18C162.057,13.46 161.94,13.707 161.8,13.92C161.38,14.553 160.777,15.117 159.99,15.61C159.203,16.097 158.407,16.483 157.6,16.77C156.793,17.05 156.13,17.213 155.61,17.26L155.54,17.26C155.24,17.26 155.09,17.167 155.09,16.98C155.09,16.86 155.183,16.8 155.37,16.8C155.93,16.753 156.637,16.49 157.49,16.01C158.35,15.53 159.107,15.033 159.76,14.52C160.04,14.287 160.373,13.957 160.76,13.53C161.147,13.11 161.34,12.7 161.34,12.3C161.34,11.88 161.143,11.67 160.75,11.67C160.537,11.67 160.32,11.717 160.1,11.81C159.873,11.903 159.69,11.973 159.55,12.02C158.87,12.347 158.12,12.857 157.3,13.55C156.48,14.243 155.737,15.017 155.07,15.87C154.403,16.723 153.94,17.583 153.68,18.45C153.613,18.637 153.567,18.82 153.54,19C153.52,19.173 153.51,19.343 153.51,19.51C153.51,20.07 153.69,20.467 154.05,20.7C154.41,20.933 154.85,21.05 155.37,21.05C156.143,21.05 156.94,20.88 157.76,20.54C158.58,20.207 159.377,19.77 160.15,19.23C160.923,18.69 161.633,18.11 162.28,17.49C162.92,16.87 163.463,16.267 163.91,15.68C163.983,15.587 164.067,15.533 164.16,15.52C164.253,15.507 164.31,15.523 164.33,15.57C164.423,15.597 164.47,15.66 164.47,15.76C164.47,15.867 164.447,15.967 164.4,16.06C163.747,16.973 162.957,17.863 162.03,18.73C161.103,19.603 160.083,20.327 158.97,20.9C157.857,21.473 156.703,21.76 155.51,21.76ZM176.11,26.64C175.243,26.64 174.417,26.33 173.63,25.71C172.843,25.09 172.123,24.27 171.47,23.25C170.81,22.23 170.253,21.117 169.8,19.91C169.34,18.703 169.007,17.527 168.8,16.38C168,17.507 167.313,18.537 166.74,19.47C166.167,20.41 165.75,20.95 165.49,21.09C165.377,21.163 165.107,21.28 164.68,21.44C164.26,21.607 163.943,21.69 163.73,21.69C163.57,21.69 163.523,21.607 163.59,21.44C163.637,21.347 163.753,21.047 163.94,20.54C164.133,20.04 164.357,19.413 164.61,18.66C164.87,17.913 165.147,17.13 165.44,16.31C165.733,15.49 166.02,14.717 166.3,13.99C166.067,14.25 165.797,14.573 165.49,14.96C165.183,15.347 164.833,15.83 164.44,16.41C164.367,16.53 164.25,16.59 164.09,16.59C163.923,16.59 163.84,16.52 163.84,16.38C163.84,16.24 163.923,16.077 164.09,15.89C164.417,15.49 164.767,15.033 165.14,14.52C165.513,14 165.877,13.497 166.23,13.01C166.583,12.517 166.863,12.117 167.07,11.81C166.723,11.623 166.55,11.377 166.55,11.07C166.55,10.883 166.623,10.737 166.77,10.63C166.923,10.523 167.083,10.53 167.25,10.65C167.343,10.697 167.423,10.72 167.49,10.72C167.89,9.667 168.397,8.523 169.01,7.29C169.617,6.063 170.32,4.893 171.12,3.78C171.913,2.667 172.773,1.757 173.7,1.05C174.627,0.35 175.603,0 176.63,0C176.75,0 176.873,0.007 177,0.02C177.133,0.027 177.257,0.043 177.37,0.07C177.51,0.09 177.647,0.137 177.78,0.21C177.907,0.283 178.03,0.343 178.15,0.39C178.683,0.69 178.95,1.133 178.95,1.72C178.95,2.14 178.833,2.603 178.6,3.11C178.367,3.617 178.08,4.113 177.74,4.6C177.4,5.093 177.067,5.54 176.74,5.94C176.413,6.34 176.157,6.643 175.97,6.85C174.817,8.023 173.58,9.09 172.26,10.05C170.933,11.01 169.78,11.69 168.8,12.09C168.42,12.89 168.067,13.703 167.74,14.53C167.413,15.363 167.137,16.127 166.91,16.82C166.69,17.513 166.523,18.047 166.41,18.42C166.803,17.927 167.183,17.427 167.55,16.92C167.91,16.42 168.277,15.923 168.65,15.43C168.65,15.337 168.647,15.243 168.64,15.15C168.627,15.057 168.62,14.963 168.62,14.87C168.62,14.73 168.627,14.593 168.64,14.46C168.647,14.333 168.663,14.21 168.69,14.09C168.717,13.95 168.777,13.81 168.87,13.67C168.963,13.53 169.057,13.46 169.15,13.46C169.29,13.46 169.37,13.6 169.39,13.88C169.417,13.953 169.44,14.037 169.46,14.13C169.487,14.223 169.51,14.317 169.53,14.41C169.837,14.057 170.22,13.623 170.68,13.11C171.133,12.597 171.607,12.103 172.1,11.63C172.593,11.163 173.04,10.837 173.44,10.65C173.767,10.483 174.093,10.4 174.42,10.4C174.747,10.4 175.017,10.477 175.23,10.63C175.437,10.783 175.54,10.967 175.54,11.18C175.54,11.507 175.297,11.787 174.81,12.02C174.43,12.187 173.93,12.42 173.31,12.72C172.69,13.027 172.053,13.39 171.4,13.81C170.74,14.237 170.177,14.693 169.71,15.18C170.063,16.427 170.41,17.493 170.75,18.38C171.09,19.273 171.5,20.123 171.98,20.93C172.46,21.737 173.097,22.647 173.89,23.66C174.43,24.267 174.98,24.757 175.54,25.13C176.107,25.503 176.613,25.69 177.06,25.69C177.453,25.69 177.727,25.603 177.88,25.43C178.033,25.257 178.11,25.04 178.11,24.78C178.11,24.473 178.033,24.14 177.88,23.78C177.727,23.413 177.57,23.113 177.41,22.88C177.29,22.74 177.23,22.613 177.23,22.5C177.23,22.427 177.277,22.39 177.37,22.39C177.583,22.39 177.807,22.483 178.04,22.67C178.16,22.81 178.317,23.087 178.51,23.5C178.71,23.907 178.81,24.263 178.81,24.57C178.81,25.037 178.647,25.43 178.32,25.75C177.993,26.063 177.62,26.29 177.2,26.43C176.773,26.57 176.41,26.64 176.11,26.64ZM169.22,10.9C170.227,10.453 171.247,9.843 172.28,9.07C173.307,8.297 174.267,7.383 175.16,6.33C175.273,6.19 175.473,5.927 175.76,5.54C176.04,5.153 176.35,4.713 176.69,4.22C177.03,3.727 177.317,3.233 177.55,2.74C177.783,2.247 177.9,1.837 177.9,1.51C177.9,1.277 177.83,1.113 177.69,1.02C177.617,0.947 177.51,0.91 177.37,0.91C176.997,0.91 176.563,1.11 176.07,1.51C174.503,2.73 173.197,4.097 172.15,5.61C171.11,7.117 170.133,8.88 169.22,10.9ZM196.07,23.37C194.737,23.37 193.623,23.113 192.73,22.6C191.843,22.087 191.317,21.29 191.15,20.21L191.15,20C190.963,20.26 190.747,20.563 190.5,20.91C190.253,21.263 189.997,21.563 189.73,21.81C189.457,22.057 189.18,22.18 188.9,22.18C188.853,22.18 188.72,22.157 188.5,22.11C188.273,22.063 188.06,22.003 187.86,21.93C187.667,21.863 187.557,21.783 187.53,21.69C187.463,21.243 187.573,20.603 187.86,19.77C188.153,18.937 188.54,18.017 189.02,17.01C189.507,16.003 190.013,14.997 190.54,13.99C191.067,12.983 191.55,12.077 191.99,11.27C192.437,10.457 192.753,9.84 192.94,9.42C193.08,9.16 193.177,8.943 193.23,8.77C193.277,8.597 193.3,8.463 193.3,8.37C193.3,8.223 193.277,8.103 193.23,8.01C193.277,7.73 193.443,7.357 193.73,6.89C194.023,6.423 194.393,5.953 194.84,5.48C195.287,5.013 195.767,4.623 196.28,4.31C196.8,3.99 197.28,3.83 197.72,3.83C197.867,3.83 198.083,3.87 198.37,3.95C198.663,4.037 198.947,4.16 199.22,4.32C199.487,4.487 199.657,4.723 199.73,5.03C199.75,5.097 199.76,5.167 199.76,5.24C199.76,5.307 199.737,5.34 199.69,5.34C199.643,5.34 199.58,5.323 199.5,5.29C199.42,5.257 199.357,5.24 199.31,5.24C198.77,5.24 198.183,5.497 197.55,6.01C196.917,6.523 196.267,7.213 195.6,8.08C194.933,8.947 194.283,9.897 193.65,10.93C193.017,11.963 192.413,13 191.84,14.04C191.267,15.087 190.767,16.047 190.34,16.92C189.92,17.8 189.593,18.51 189.36,19.05C189.173,19.563 189.08,19.927 189.08,20.14C189.08,20.467 189.207,20.63 189.46,20.63C189.793,20.63 190.147,20.407 190.52,19.96C190.78,19.66 191.02,19.373 191.24,19.1C191.46,18.833 191.653,18.723 191.82,18.77C192.147,18.77 192.37,18.857 192.49,19.03C192.603,19.21 192.673,19.417 192.7,19.65C192.72,19.883 192.743,20.093 192.77,20.28C192.93,21.007 193.31,21.61 193.91,22.09C194.51,22.57 195.347,22.81 196.42,22.81C197.573,22.81 198.607,22.623 199.52,22.25C200.433,21.877 201.16,21.357 201.7,20.69C202.233,20.017 202.5,19.26 202.5,18.42C202.5,17.833 202.36,17.217 202.08,16.57C201.8,15.93 201.357,15.28 200.75,14.62C200.23,14.013 199.653,13.44 199.02,12.9C198.393,12.36 197.85,11.863 197.39,11.41C196.93,10.95 196.7,10.557 196.7,10.23C196.7,9.95 196.89,9.697 197.27,9.47C197.643,9.25 197.947,9.14 198.18,9.14C198.72,9.14 199.407,9.033 200.24,8.82C201.073,8.613 201.933,8.327 202.82,7.96C203.713,7.6 204.527,7.197 205.26,6.75C206,6.303 206.547,5.857 206.9,5.41C207.107,5.157 207.277,4.883 207.41,4.59C207.537,4.297 207.6,4.01 207.6,3.73C207.6,3.283 207.407,2.877 207.02,2.51C206.633,2.15 205.983,1.887 205.07,1.72C204.81,1.653 204.507,1.607 204.16,1.58C203.807,1.56 203.43,1.55 203.03,1.55C201.837,1.55 200.453,1.66 198.88,1.88C197.313,2.1 195.72,2.423 194.1,2.85C192.487,3.27 190.977,3.797 189.57,4.43C188.163,5.063 187.01,5.797 186.11,6.63C185.203,7.457 184.693,8.373 184.58,9.38C184.533,9.967 184.673,10.413 185,10.72C185.327,11.027 185.713,11.257 186.16,11.41C186.607,11.557 186.957,11.703 187.21,11.85C187.423,11.943 187.53,12.037 187.53,12.13C187.53,12.243 187.4,12.3 187.14,12.3C186.86,12.3 186.51,12.23 186.09,12.09C185.67,11.95 185.253,11.733 184.84,11.44C184.433,11.147 184.1,10.79 183.84,10.37C183.58,9.95 183.487,9.457 183.56,8.89C183.56,8.843 183.547,8.757 183.52,8.63C183.5,8.503 183.49,8.403 183.49,8.33C183.557,7.583 183.88,6.87 184.46,6.19C185.033,5.51 185.71,4.887 186.49,4.32C187.277,3.76 188.01,3.293 188.69,2.92C189.443,2.52 190.347,2.15 191.4,1.81C192.453,1.47 193.583,1.17 194.79,0.91C195.997,0.657 197.22,0.453 198.46,0.3C199.707,0.147 200.867,0.07 201.94,0.07C203.087,0.07 204.097,0.163 204.97,0.35C206.137,0.61 207.037,1.067 207.67,1.72C208.303,2.38 208.62,3.107 208.62,3.9C208.6,4.767 208.337,5.523 207.83,6.17C207.323,6.81 206.673,7.353 205.88,7.8C205.08,8.247 204.22,8.617 203.3,8.91C202.373,9.203 201.463,9.42 200.57,9.56C199.683,9.7 198.91,9.783 198.25,9.81C199.237,10.397 200.217,11.047 201.19,11.76C202.163,12.473 202.97,13.25 203.61,14.09C204.257,14.937 204.58,15.863 204.58,16.87C204.58,17.437 204.457,18.017 204.21,18.61C203.963,19.21 203.57,19.85 203.03,20.53C202.33,21.397 201.353,22.087 200.1,22.6C198.847,23.113 197.503,23.37 196.07,23.37ZM217.48,21.58C217.08,21.58 216.71,21.487 216.37,21.3C216.03,21.113 215.78,20.763 215.62,20.25C215.547,20.037 215.51,19.743 215.51,19.37C215.51,18.85 215.58,18.273 215.72,17.64C215.86,17.013 216.013,16.477 216.18,16.03C216.06,16.077 215.843,16.28 215.53,16.64C215.21,17.007 214.823,17.44 214.37,17.94C213.91,18.447 213.407,18.953 212.86,19.46C212.307,19.96 211.737,20.373 211.15,20.7C210.563,21.033 209.99,21.2 209.43,21.2C209.057,21.2 208.657,21.087 208.23,20.86C207.81,20.64 207.47,20.353 207.21,20C206.863,19.533 206.69,19.053 206.69,18.56C206.69,17.927 206.907,17.27 207.34,16.59C207.773,15.91 208.337,15.247 209.03,14.6C209.717,13.96 210.453,13.377 211.24,12.85C212.027,12.323 212.777,11.877 213.49,11.51C214.203,11.15 214.783,10.91 215.23,10.79C215.697,10.65 216.223,10.58 216.81,10.58C217.137,10.58 217.477,10.62 217.83,10.7C218.183,10.787 218.477,10.923 218.71,11.11C218.897,11.203 219.05,11.33 219.17,11.49C219.283,11.657 219.34,11.833 219.34,12.02C219.34,12.207 219.26,12.267 219.1,12.2C218.907,11.913 218.653,11.73 218.34,11.65C218.027,11.57 217.703,11.53 217.37,11.53C216.437,11.53 215.407,11.833 214.28,12.44C213.153,13.053 212.147,13.77 211.26,14.59C210.98,14.823 210.597,15.227 210.11,15.8C209.63,16.373 209.193,17 208.8,17.68C208.4,18.36 208.2,18.98 208.2,19.54C208.2,19.847 208.283,20.117 208.45,20.35C208.543,20.517 208.693,20.6 208.9,20.6C209.227,20.6 209.667,20.423 210.22,20.07C210.773,19.717 211.34,19.29 211.92,18.79C212.507,18.283 213.04,17.797 213.52,17.33C214,16.863 214.347,16.523 214.56,16.31C214.68,16.19 214.91,15.95 215.25,15.59C215.59,15.223 215.957,14.83 216.35,14.41C216.75,13.99 217.11,13.627 217.43,13.32C217.743,13.013 217.947,12.86 218.04,12.86C218.16,12.86 218.353,12.89 218.62,12.95C218.893,13.01 219.123,13.1 219.31,13.22C219.497,13.333 219.53,13.483 219.41,13.67C218.803,14.563 218.317,15.497 217.95,16.47C217.59,17.443 217.373,18.21 217.3,18.77C217.28,18.863 217.27,18.95 217.27,19.03L217.27,19.3C217.27,20.233 217.597,20.7 218.25,20.7C218.603,20.7 219.073,20.49 219.66,20.07C220.247,19.65 220.843,19.147 221.45,18.56C222.057,17.973 222.613,17.403 223.12,16.85C223.627,16.303 223.973,15.89 224.16,15.61C224.227,15.537 224.297,15.5 224.37,15.5C224.463,15.5 224.543,15.54 224.61,15.62C224.683,15.707 224.683,15.807 224.61,15.92C224.357,16.347 223.983,16.85 223.49,17.43C222.997,18.017 222.447,18.603 221.84,19.19C221.227,19.777 220.627,20.28 220.04,20.7C219.74,20.933 219.353,21.14 218.88,21.32C218.413,21.493 217.947,21.58 217.48,21.58ZM218.04,33.25C217.76,33.25 217.62,33.133 217.62,32.9C217.62,32.807 217.653,32.677 217.72,32.51C218.007,31.903 218.407,30.997 218.92,29.79C219.433,28.583 220,27.2 220.62,25.64C221.247,24.08 221.877,22.48 222.51,20.84C223.07,19.387 223.613,17.97 224.14,16.59C224.667,15.21 225.107,13.963 225.46,12.85C225.813,11.737 225.99,10.873 225.99,10.26C225.99,10.073 226.117,9.963 226.37,9.93C226.63,9.897 226.877,9.88 227.11,9.88C227.883,9.88 228.27,10.137 228.27,10.65C228.27,11.07 228.037,11.62 227.57,12.3C227.143,12.98 226.78,13.677 226.48,14.39C226.173,15.11 225.867,15.843 225.56,16.59C226.127,15.843 226.657,15.107 227.15,14.38C227.637,13.653 228.21,13.03 228.87,12.51C229.383,12.117 229.893,11.797 230.4,11.55C230.9,11.303 231.443,11.18 232.03,11.18C232.637,11.18 233.247,11.327 233.86,11.62C234.467,11.913 234.817,12.377 234.91,13.01C234.937,13.077 234.95,13.15 234.95,13.23L234.95,13.46C234.95,14.28 234.71,15.083 234.23,15.87C233.75,16.657 233.18,17.353 232.52,17.96C231.867,18.573 231.26,19.067 230.7,19.44C230.227,19.72 229.657,20.023 228.99,20.35C228.323,20.677 227.62,20.96 226.88,21.2C226.14,21.433 225.43,21.55 224.75,21.55C224.33,21.55 223.98,21.503 223.7,21.41C223.393,22.11 223.043,23.017 222.65,24.13C222.25,25.243 221.873,26.34 221.52,27.42C221.353,27.887 221.297,28.267 221.35,28.56C221.397,28.853 221.337,29.223 221.17,29.67C221.03,30.137 220.877,30.587 220.71,31.02C220.55,31.453 220.363,31.87 220.15,32.27C220.103,32.363 219.957,32.49 219.71,32.65C219.463,32.817 219.183,32.96 218.87,33.08C218.55,33.193 218.273,33.25 218.04,33.25ZM223.98,20.84C224.733,20.84 225.52,20.667 226.34,20.32C227.16,19.967 227.967,19.497 228.76,18.91C229.56,18.323 230.28,17.683 230.92,16.99C231.567,16.303 232.09,15.63 232.49,14.97C232.957,14.223 233.19,13.533 233.19,12.9C233.19,12.173 232.873,11.81 232.24,11.81C232.08,11.81 231.88,11.84 231.64,11.9C231.407,11.96 231.14,12.07 230.84,12.23C229.593,12.89 228.573,13.657 227.78,14.53C226.98,15.41 226.3,16.377 225.74,17.43C225.18,18.49 224.593,19.627 223.98,20.84ZM238.99,21.58C238.57,21.58 238.19,21.487 237.85,21.3C237.51,21.113 237.257,20.763 237.09,20.25C237.07,20.177 237.053,20.107 237.04,20.04C237.027,19.967 237.02,19.883 237.02,19.79C237.02,19.323 237.127,18.737 237.34,18.03C237.553,17.33 237.81,16.65 238.11,15.99C237.97,16.177 237.807,16.407 237.62,16.68C237.433,16.947 237.163,17.293 236.81,17.72C236.717,17.813 236.613,17.86 236.5,17.86C236.333,17.86 236.25,17.763 236.25,17.57C236.25,17.43 236.297,17.313 236.39,17.22C236.997,16.447 237.54,15.757 238.02,15.15C238.5,14.543 238.86,14.027 239.1,13.6C239.1,13.553 239.17,13.407 239.31,13.16C239.45,12.913 239.637,12.57 239.87,12.13C239.683,12.15 239.523,12.167 239.39,12.18C239.263,12.193 239.153,12.2 239.06,12.2C238.893,12.2 238.753,12.13 238.64,11.99C238.52,11.843 238.507,11.667 238.6,11.46C238.72,11.133 238.98,10.947 239.38,10.9C239.773,10.853 240.123,10.817 240.43,10.79C240.457,10.743 240.503,10.72 240.57,10.72C240.85,10.207 241.12,9.703 241.38,9.21C241.64,8.717 241.857,8.307 242.03,7.98C242.203,7.653 242.29,7.477 242.29,7.45C242.763,6.703 243.07,6.207 243.21,5.96C243.35,5.713 243.537,5.567 243.77,5.52C244.03,5.493 244.307,5.503 244.6,5.55C244.893,5.597 245.087,5.703 245.18,5.87C245.247,5.963 245.28,6.08 245.28,6.22C245.28,6.433 245.233,6.64 245.14,6.84C245.047,7.033 244.953,7.19 244.86,7.31C244.767,7.477 244.643,7.587 244.49,7.64C244.337,7.7 244.203,7.847 244.09,8.08C243.857,8.527 243.597,9.01 243.31,9.53C243.03,10.043 242.74,10.533 242.44,11L242.86,10.97C243.42,10.923 243.953,10.863 244.46,10.79C244.96,10.723 245.54,10.7 246.2,10.72C246.313,10.72 246.437,10.737 246.57,10.77C246.697,10.81 246.76,10.863 246.76,10.93C246.76,11.023 246.457,11.153 245.85,11.32C245.61,11.413 245.1,11.513 244.32,11.62C243.533,11.72 242.73,11.82 241.91,11.92C241.677,12.36 241.467,12.727 241.28,13.02C241.087,13.313 240.957,13.53 240.89,13.67C240.377,14.75 239.913,15.73 239.5,16.61C239.093,17.49 238.863,18.21 238.81,18.77C238.79,18.863 238.78,18.95 238.78,19.03L238.78,19.3C238.78,20.233 239.083,20.7 239.69,20.7C240.07,20.7 240.55,20.497 241.13,20.09C241.717,19.677 242.317,19.173 242.93,18.58C243.537,17.98 244.093,17.403 244.6,16.85C245.1,16.303 245.443,15.89 245.63,15.61C245.703,15.537 245.777,15.5 245.85,15.5C245.943,15.5 246.017,15.537 246.07,15.61C246.13,15.677 246.137,15.77 246.09,15.89C245.877,16.283 245.52,16.78 245.02,17.38C244.513,17.98 243.95,18.577 243.33,19.17C242.71,19.77 242.107,20.28 241.52,20.7C241.213,20.933 240.833,21.14 240.38,21.32C239.92,21.493 239.457,21.58 238.99,21.58ZM251.12,9C250.813,9 250.497,8.97 250.17,8.91C249.843,8.85 249.68,8.633 249.68,8.26C249.68,8.187 249.837,8.023 250.15,7.77C250.47,7.51 250.8,7.247 251.14,6.98C251.473,6.707 251.677,6.547 251.75,6.5C252.15,6.173 252.397,6.01 252.49,6.01C252.603,6.01 252.603,6.163 252.49,6.47C252.37,6.77 252.31,7.04 252.31,7.28C252.31,7.393 252.24,7.59 252.1,7.87C251.96,8.15 251.797,8.41 251.61,8.65C251.423,8.883 251.26,9 251.12,9ZM247.29,21.58C246.863,21.58 246.48,21.487 246.14,21.3C245.8,21.113 245.55,20.763 245.39,20.25C245.363,20.177 245.347,20.107 245.34,20.04C245.327,19.967 245.32,19.883 245.32,19.79C245.32,19.323 245.423,18.737 245.63,18.03C245.843,17.33 246.103,16.65 246.41,15.99C246.27,16.177 246.107,16.407 245.92,16.68C245.727,16.947 245.457,17.293 245.11,17.72C245.017,17.813 244.91,17.86 244.79,17.86C244.623,17.86 244.54,17.763 244.54,17.57C244.54,17.43 244.59,17.313 244.69,17.22C245.297,16.447 245.84,15.757 246.32,15.15C246.8,14.543 247.157,14.027 247.39,13.6C247.39,13.58 247.383,13.563 247.37,13.55C247.363,13.537 247.36,13.52 247.36,13.5C247.36,13.427 247.393,13.32 247.46,13.18C247.647,12.62 247.84,12.147 248.04,11.76C248.24,11.373 248.457,11.157 248.69,11.11C248.737,11.11 248.783,11.103 248.83,11.09C248.877,11.077 248.923,11.07 248.97,11.07C249.23,11.07 249.467,11.13 249.68,11.25C249.887,11.363 249.99,11.537 249.99,11.77C249.99,11.983 249.913,12.243 249.76,12.55C249.613,12.857 249.42,13.23 249.18,13.67C248.667,14.75 248.207,15.73 247.8,16.61C247.387,17.49 247.157,18.21 247.11,18.77C247.09,18.863 247.08,18.95 247.08,19.03L247.08,19.3C247.08,20.233 247.383,20.7 247.99,20.7C248.363,20.7 248.843,20.497 249.43,20.09C250.017,19.677 250.613,19.173 251.22,18.58C251.833,17.98 252.39,17.403 252.89,16.85C253.397,16.303 253.743,15.89 253.93,15.61C254.003,15.537 254.073,15.5 254.14,15.5C254.233,15.5 254.31,15.537 254.37,15.61C254.43,15.677 254.437,15.77 254.39,15.89C254.177,16.283 253.817,16.78 253.31,17.38C252.81,17.98 252.25,18.577 251.63,19.17C251.01,19.77 250.407,20.28 249.82,20.7C249.513,20.933 249.13,21.14 248.67,21.32C248.217,21.493 247.757,21.58 247.29,21.58ZM254.25,22.99C253.31,22.99 252.84,22.73 252.84,22.21C252.84,21.837 253.04,21.45 253.44,21.05C253.74,20.75 254.08,20.507 254.46,20.32C254.833,20.133 255.067,20.04 255.16,20.04C255.28,20.04 255.343,20.087 255.35,20.18C255.363,20.273 255.313,20.343 255.2,20.39C254.96,20.53 254.693,20.723 254.4,20.97C254.107,21.217 253.96,21.48 253.96,21.76C253.96,22.133 254.183,22.32 254.63,22.32C255.17,22.32 255.733,22.163 256.32,21.85C256.907,21.53 257.45,21.123 257.95,20.63C258.457,20.137 258.867,19.64 259.18,19.14C259.5,18.633 259.66,18.193 259.66,17.82C259.66,17.513 259.553,17.233 259.34,16.98C259.133,16.72 258.7,16.413 258.04,16.06C257.593,15.807 257.167,15.537 256.76,15.25C256.347,14.97 256.037,14.633 255.83,14.24C255.643,14.567 255.403,14.957 255.11,15.41C254.817,15.87 254.47,16.347 254.07,16.84C253.93,16.98 253.79,17.05 253.65,17.05C253.51,17.05 253.44,16.99 253.44,16.87C253.44,16.803 253.497,16.687 253.61,16.52C254.243,15.773 254.713,15.083 255.02,14.45C255.327,13.817 255.537,13.337 255.65,13.01C255.743,12.33 256.06,11.683 256.6,11.07C257.14,10.463 257.797,9.93 258.57,9.47C259.343,9.017 260.133,8.66 260.94,8.4C261.747,8.14 262.467,8.01 263.1,8.01C263.733,8.01 264.297,8.13 264.79,8.37C265.283,8.603 265.53,8.977 265.53,9.49C265.53,9.77 265.447,10.073 265.28,10.4C265.073,10.847 264.723,11.247 264.23,11.6C264.203,11.62 264.167,11.63 264.12,11.63C263.933,11.63 263.84,11.55 263.84,11.39C263.84,11.27 263.9,11.153 264.02,11.04C264.207,10.873 264.357,10.673 264.47,10.44C264.59,10.207 264.65,9.983 264.65,9.77C264.65,9.35 264.403,9.14 263.91,9.14C263.397,9.14 262.723,9.28 261.89,9.56C261.057,9.84 260.29,10.203 259.59,10.65C258.79,11.163 258.123,11.727 257.59,12.34C257.05,12.947 256.78,13.483 256.78,13.95C256.78,14.19 256.857,14.407 257.01,14.6C257.157,14.8 257.453,15.03 257.9,15.29C258.133,15.43 258.463,15.61 258.89,15.83C259.31,16.057 259.673,16.263 259.98,16.45C260.94,17.037 261.42,17.657 261.42,18.31C261.42,18.85 261.183,19.397 260.71,19.95C260.243,20.497 259.64,21 258.9,21.46C258.167,21.913 257.39,22.283 256.57,22.57C255.75,22.85 254.977,22.99 254.25,22.99ZM266.34,21.58C265.913,21.58 265.533,21.487 265.2,21.3C264.86,21.113 264.607,20.763 264.44,20.25C264.413,20.177 264.397,20.107 264.39,20.04C264.377,19.967 264.37,19.883 264.37,19.79C264.37,19.323 264.477,18.737 264.69,18.03C264.897,17.33 265.153,16.65 265.46,15.99C265.32,16.177 265.157,16.407 264.97,16.68C264.783,16.947 264.513,17.293 264.16,17.72C264.067,17.813 263.96,17.86 263.84,17.86C263.68,17.86 263.6,17.763 263.6,17.57C263.6,17.43 263.647,17.313 263.74,17.22C264.347,16.447 264.89,15.757 265.37,15.15C265.85,14.543 266.207,14.027 266.44,13.6C266.44,13.553 266.51,13.407 266.65,13.16C266.79,12.913 266.98,12.57 267.22,12.13C267.033,12.15 266.873,12.167 266.74,12.18C266.613,12.193 266.503,12.2 266.41,12.2C266.243,12.2 266.103,12.13 265.99,11.99C265.87,11.843 265.857,11.667 265.95,11.46C266.07,11.133 266.327,10.947 266.72,10.9C267.12,10.853 267.473,10.817 267.78,10.79C267.8,10.743 267.847,10.72 267.92,10.72C268.2,10.207 268.47,9.703 268.73,9.21C268.983,8.717 269.2,8.307 269.38,7.98C269.553,7.653 269.64,7.477 269.64,7.45C270.107,6.703 270.413,6.207 270.56,5.96C270.7,5.713 270.887,5.567 271.12,5.52C271.373,5.493 271.647,5.503 271.94,5.55C272.233,5.597 272.427,5.703 272.52,5.87C272.593,5.963 272.63,6.08 272.63,6.22C272.63,6.433 272.583,6.64 272.49,6.84C272.397,7.033 272.303,7.19 272.21,7.31C272.117,7.477 271.993,7.587 271.84,7.64C271.687,7.7 271.55,7.847 271.43,8.08C271.197,8.527 270.94,9.01 270.66,9.53C270.38,10.043 270.087,10.533 269.78,11L270.2,10.97C270.767,10.923 271.3,10.863 271.8,10.79C272.307,10.723 272.887,10.7 273.54,10.72C273.66,10.72 273.783,10.737 273.91,10.77C274.043,10.81 274.11,10.863 274.11,10.93C274.11,11.023 273.803,11.153 273.19,11.32C272.957,11.413 272.447,11.513 271.66,11.62C270.88,11.72 270.08,11.82 269.26,11.92C269.02,12.36 268.807,12.727 268.62,13.02C268.433,13.313 268.307,13.53 268.24,13.67C267.72,14.75 267.257,15.73 266.85,16.61C266.437,17.49 266.207,18.21 266.16,18.77C266.14,18.863 266.13,18.95 266.13,19.03L266.13,19.3C266.13,20.233 266.433,20.7 267.04,20.7C267.413,20.7 267.893,20.497 268.48,20.09C269.067,19.677 269.663,19.173 270.27,18.58C270.883,17.98 271.44,17.403 271.94,16.85C272.447,16.303 272.793,15.89 272.98,15.61C273.053,15.537 273.123,15.5 273.19,15.5C273.283,15.5 273.36,15.537 273.42,15.61C273.48,15.677 273.487,15.77 273.44,15.89C273.227,16.283 272.87,16.78 272.37,17.38C271.863,17.98 271.3,18.577 270.68,19.17C270.06,19.77 269.457,20.28 268.87,20.7C268.563,20.933 268.183,21.14 267.73,21.32C267.27,21.493 266.807,21.58 266.34,21.58ZM286.97,22.85C285.75,22.85 284.63,22.643 283.61,22.23C282.597,21.823 281.79,21.19 281.19,20.33C280.59,19.477 280.29,18.383 280.29,17.05C280.29,16.297 280.397,15.487 280.61,14.62C280.937,13.24 281.48,11.857 282.24,10.47C283.007,9.09 283.92,7.79 284.98,6.57C286.047,5.35 287.213,4.267 288.48,3.32C289.747,2.373 291.053,1.623 292.4,1.07C293.747,0.523 295.09,0.25 296.43,0.25C296.823,0.25 297.233,0.283 297.66,0.35C298.593,0.517 299.29,0.863 299.75,1.39C300.203,1.917 300.43,2.52 300.43,3.2C300.43,3.993 300.173,4.79 299.66,5.59C299.147,6.383 298.473,7.14 297.64,7.86C296.807,8.573 295.903,9.21 294.93,9.77C293.957,10.33 293.003,10.787 292.07,11.14C291.13,11.493 290.297,11.693 289.57,11.74C289.123,11.76 288.9,11.63 288.9,11.35C288.9,11.21 288.977,11.063 289.13,10.91C289.283,10.763 289.5,10.677 289.78,10.65C291.607,10.483 293.313,9.927 294.9,8.98C296.48,8.033 297.693,6.74 298.54,5.1C298.727,4.747 298.87,4.387 298.97,4.02C299.077,3.66 299.13,3.317 299.13,2.99C299.13,2.47 298.983,2.03 298.69,1.67C298.397,1.303 297.887,1.12 297.16,1.12C296.367,1.12 295.43,1.36 294.35,1.84C293.277,2.327 292.147,3.003 290.96,3.87C289.78,4.737 288.62,5.76 287.48,6.94C286.347,8.127 285.327,9.417 284.42,10.81C283.52,12.203 282.823,13.673 282.33,15.22C282.023,16.16 281.87,17.027 281.87,17.82C281.87,19.247 282.363,20.297 283.35,20.97C284.337,21.637 285.613,21.97 287.18,21.97C288.54,21.97 290.033,21.737 291.66,21.27C293.293,20.797 294.883,20.073 296.43,19.1C297.977,18.127 299.277,16.893 300.33,15.4C300.397,15.3 300.477,15.25 300.57,15.25C300.663,15.25 300.753,15.3 300.84,15.4C300.92,15.493 300.927,15.587 300.86,15.68C299.64,17.367 298.237,18.737 296.65,19.79C295.07,20.843 293.437,21.617 291.75,22.11C290.063,22.603 288.47,22.85 286.97,22.85ZM300.36,21.69C300.173,21.69 300.127,21.607 300.22,21.44C300.267,21.3 300.39,20.95 300.59,20.39C300.79,19.823 301.03,19.143 301.31,18.35C301.59,17.55 301.883,16.733 302.19,15.9C302.497,15.073 302.777,14.33 303.03,13.67C302.87,13.883 302.62,14.19 302.28,14.59C301.94,14.983 301.583,15.403 301.21,15.85C300.83,16.297 300.477,16.683 300.15,17.01C300.083,17.083 300.037,17.12 300.01,17.12C299.943,17.12 299.91,17.05 299.91,16.91C299.91,16.623 299.98,16.363 300.12,16.13C300.633,15.477 301.13,14.863 301.61,14.29C302.09,13.717 302.53,13.17 302.93,12.65C302.697,12.51 302.58,12.337 302.58,12.13C302.58,11.797 302.743,11.63 303.07,11.63C303.21,11.63 303.317,11.653 303.39,11.7C303.41,11.727 303.433,11.74 303.46,11.74C303.48,11.74 303.503,11.763 303.53,11.81C303.643,11.643 303.743,11.49 303.83,11.35C303.91,11.21 303.983,11.06 304.05,10.9C304.143,10.687 304.337,10.28 304.63,9.68C304.923,9.087 305.293,8.38 305.74,7.56C306.187,6.74 306.697,5.89 307.27,5.01C307.843,4.13 308.463,3.31 309.13,2.55C309.803,1.79 310.497,1.173 311.21,0.7C311.923,0.233 312.653,0 313.4,0C313.493,0 313.59,0.007 313.69,0.02C313.783,0.027 313.877,0.043 313.97,0.07C314.557,0.19 314.967,0.393 315.2,0.68C315.433,0.973 315.55,1.32 315.55,1.72C315.55,2 315.497,2.3 315.39,2.62C315.283,2.933 315.137,3.243 314.95,3.55C314.483,4.37 313.863,5.197 313.09,6.03C312.317,6.863 311.453,7.683 310.5,8.49C309.553,9.297 308.607,10.08 307.66,10.84C306.707,11.607 305.82,12.33 305,13.01C304.44,14.203 304.007,15.263 303.7,16.19C303.4,17.11 303.167,17.853 303,18.42C303.26,18.093 303.647,17.623 304.16,17.01C304.673,16.403 305.26,15.747 305.92,15.04C306.573,14.34 307.253,13.667 307.96,13.02C308.66,12.38 309.327,11.853 309.96,11.44C310.593,11.033 311.133,10.83 311.58,10.83C312.14,10.83 312.42,11.12 312.42,11.7C312.42,12.267 312.22,12.89 311.82,13.57C311.42,14.25 311.093,14.823 310.84,15.29C310.513,15.97 310.25,16.62 310.05,17.24C309.85,17.86 309.727,18.37 309.68,18.77C309.653,18.863 309.64,18.95 309.64,19.03L309.64,19.3C309.64,20.233 309.97,20.7 310.63,20.7C310.977,20.7 311.443,20.49 312.03,20.07C312.617,19.65 313.217,19.147 313.83,18.56C314.437,17.973 314.993,17.403 315.5,16.85C316,16.303 316.343,15.89 316.53,15.61C316.603,15.537 316.687,15.5 316.78,15.5C316.873,15.5 316.943,15.537 316.99,15.61C317.037,15.677 317.037,15.77 316.99,15.89C316.757,16.283 316.393,16.78 315.9,17.38C315.407,17.98 314.857,18.577 314.25,19.17C313.637,19.77 313.037,20.28 312.45,20.7C312.15,20.933 311.76,21.14 311.28,21.32C310.8,21.493 310.323,21.58 309.85,21.58C309.477,21.58 309.113,21.487 308.76,21.3C308.413,21.113 308.157,20.763 307.99,20.25C307.923,20.037 307.89,19.743 307.89,19.37L307.89,19C307.89,18.867 307.9,18.73 307.92,18.59C308.013,17.843 308.267,17.053 308.68,16.22C309.087,15.387 309.467,14.643 309.82,13.99C309.913,13.803 309.99,13.64 310.05,13.5C310.11,13.36 310.14,13.243 310.14,13.15C310.14,12.957 310.057,12.86 309.89,12.86C309.723,12.86 309.467,12.967 309.12,13.18C308.767,13.393 308.297,13.757 307.71,14.27C307.197,14.717 306.653,15.297 306.08,16.01C305.5,16.723 304.937,17.457 304.39,18.21C303.837,18.957 303.357,19.6 302.95,20.14C302.537,20.68 302.25,20.997 302.09,21.09C301.97,21.163 301.7,21.28 301.28,21.44C300.853,21.607 300.547,21.69 300.36,21.69ZM305.67,11.42C306.61,10.787 307.63,9.997 308.73,9.05C309.83,8.103 310.867,7.083 311.84,5.99C312.813,4.903 313.557,3.867 314.07,2.88C314.35,2.34 314.49,1.897 314.49,1.55C314.49,1.15 314.317,0.95 313.97,0.95C313.803,0.95 313.613,0.99 313.4,1.07C313.193,1.15 312.95,1.297 312.67,1.51C311.097,2.73 309.77,4.177 308.69,5.85C307.617,7.53 306.61,9.387 305.67,11.42ZM325.81,21.58C325.39,21.58 325.017,21.487 324.69,21.3C324.363,21.113 324.117,20.763 323.95,20.25C323.923,20.13 323.893,19.993 323.86,19.84C323.827,19.687 323.81,19.53 323.81,19.37C323.81,18.803 323.887,18.17 324.04,17.47C324.193,16.763 324.363,16.177 324.55,15.71C324.457,15.783 324.29,16.017 324.05,16.41C323.817,16.81 323.527,17.273 323.18,17.8C322.827,18.327 322.433,18.853 322,19.38C321.567,19.913 321.097,20.35 320.59,20.69C320.09,21.03 319.557,21.2 318.99,21.2C318.617,21.2 318.167,21.093 317.64,20.88C317.113,20.667 316.733,20.373 316.5,20C316.267,19.627 316.15,19.157 316.15,18.59C316.15,17.91 316.3,17.167 316.6,16.36C316.907,15.553 317.293,14.797 317.76,14.09C317.927,13.857 318.117,13.577 318.33,13.25C318.537,12.923 318.747,12.637 318.96,12.39C319.167,12.143 319.317,12.01 319.41,11.99C319.697,11.897 320.027,11.85 320.4,11.85C320.8,11.85 321.093,11.897 321.28,11.99C321.44,12.057 321.52,12.137 321.52,12.23C321.52,12.35 321.427,12.503 321.24,12.69C320.987,12.923 320.637,13.273 320.19,13.74C319.743,14.213 319.303,14.777 318.87,15.43C318.437,16.083 318.08,16.81 317.8,17.61C317.567,18.243 317.45,18.793 317.45,19.26C317.45,20.08 317.777,20.49 318.43,20.49C318.99,20.49 319.587,20.257 320.22,19.79C320.853,19.323 321.47,18.75 322.07,18.07C322.663,17.39 323.203,16.717 323.69,16.05C324.17,15.377 324.537,14.843 324.79,14.45C325.023,14.117 325.287,13.693 325.58,13.18C325.873,12.667 326.16,12.163 326.44,11.67C326.727,11.177 326.95,10.813 327.11,10.58C327.277,10.58 327.53,10.61 327.87,10.67C328.21,10.73 328.503,10.83 328.75,10.97C328.997,11.11 329.06,11.283 328.94,11.49C328.8,11.73 328.583,12.093 328.29,12.58C327.997,13.073 327.703,13.573 327.41,14.08C327.117,14.58 326.89,14.983 326.73,15.29C326.163,16.37 325.8,17.53 325.64,18.77C325.613,18.863 325.6,18.95 325.6,19.03L325.6,19.3C325.6,20.233 325.917,20.7 326.55,20.7C326.903,20.7 327.373,20.49 327.96,20.07C328.54,19.65 329.143,19.147 329.77,18.56C330.39,17.973 330.95,17.403 331.45,16.85C331.957,16.303 332.303,15.89 332.49,15.61C332.537,15.537 332.607,15.5 332.7,15.5C332.793,15.5 332.87,15.537 332.93,15.61C332.99,15.677 332.983,15.77 332.91,15.89C332.703,16.283 332.347,16.78 331.84,17.38C331.333,17.98 330.777,18.577 330.17,19.17C329.563,19.77 328.967,20.28 328.38,20.7C328.073,20.933 327.687,21.14 327.22,21.32C326.753,21.493 326.283,21.58 325.81,21.58ZM337.03,21.65C336.63,21.65 336.277,21.563 335.97,21.39C335.663,21.21 335.453,20.877 335.34,20.39C335.267,20.13 335.23,19.87 335.23,19.61C335.23,18.91 335.413,18.227 335.78,17.56C336.14,16.893 336.567,16.27 337.06,15.69C337.553,15.117 337.977,14.633 338.33,14.24C338.517,14.047 338.733,13.8 338.98,13.5C339.22,13.193 339.34,12.887 339.34,12.58C339.34,12.393 339.247,12.213 339.06,12.04C338.873,11.86 338.533,11.737 338.04,11.67C337.76,11.623 337.497,11.583 337.25,11.55C337.003,11.51 336.753,11.49 336.5,11.49C335.84,12.383 335.2,13.28 334.58,14.18C333.96,15.087 333.3,15.973 332.6,16.84C332.433,17 332.29,17.08 332.17,17.08C332.03,17.08 331.96,17.01 331.96,16.87C331.96,16.73 332.03,16.59 332.17,16.45C333.437,14.903 334.527,13.25 335.44,11.49C335.327,11.49 335.153,11.487 334.92,11.48C334.68,11.467 334.49,11.447 334.35,11.42C334.19,11.373 334.063,11.303 333.97,11.21C333.877,11.117 333.83,11.023 333.83,10.93C333.83,10.79 333.887,10.71 334,10.69C334.307,10.59 334.637,10.447 334.99,10.26C335.337,10.073 335.663,9.83 335.97,9.53C336.297,9.197 336.6,8.85 336.88,8.49C337.167,8.123 337.39,7.847 337.55,7.66C337.717,7.547 337.893,7.49 338.08,7.49C338.2,7.49 338.31,7.523 338.41,7.59C338.517,7.663 338.57,7.77 338.57,7.91C338.57,8.07 338.5,8.28 338.36,8.54C338.147,8.867 337.92,9.23 337.68,9.63C337.433,10.03 337.203,10.393 336.99,10.72C337.41,10.747 337.833,10.77 338.26,10.79C338.68,10.817 339.113,10.83 339.56,10.83C339.793,10.83 340.02,10.823 340.24,10.81C340.467,10.797 340.697,10.79 340.93,10.79C341.63,10.79 341.98,10.967 341.98,11.32C341.98,11.553 341.857,11.84 341.61,12.18C341.363,12.52 341.067,12.89 340.72,13.29C339.92,14.203 339.24,15.163 338.68,16.17C338.113,17.177 337.737,17.95 337.55,18.49C337.363,19.05 337.27,19.47 337.27,19.75C337.27,20.317 337.493,20.6 337.94,20.6C338.34,20.6 338.827,20.4 339.4,20C339.973,19.6 340.563,19.113 341.17,18.54C341.783,17.967 342.333,17.403 342.82,16.85C343.313,16.303 343.667,15.89 343.88,15.61C343.927,15.537 343.997,15.5 344.09,15.5C344.183,15.5 344.267,15.54 344.34,15.62C344.407,15.707 344.407,15.807 344.34,15.92C344.08,16.32 343.703,16.82 343.21,17.42C342.717,18.013 342.167,18.603 341.56,19.19C340.953,19.777 340.357,20.28 339.77,20.7C339.463,20.933 339.047,21.15 338.52,21.35C337.993,21.55 337.497,21.65 337.03,21.65ZM347.92,21.62C347.5,21.687 347.08,21.72 346.66,21.72C345.627,21.72 344.77,21.473 344.09,20.98C343.41,20.493 343.07,19.78 343.07,18.84C343.07,18.28 343.233,17.6 343.56,16.8C343.793,16.26 344.227,15.64 344.86,14.94C345.493,14.233 346.233,13.547 347.08,12.88C347.92,12.213 348.773,11.663 349.64,11.23C350.507,10.797 351.293,10.58 352,10.58C352.26,10.58 352.493,10.617 352.7,10.69C352.96,10.783 353.183,10.91 353.37,11.07C353.557,11.237 353.65,11.483 353.65,11.81L353.65,12.02C353.65,12.093 353.627,12.177 353.58,12.27C353.58,12.337 353.527,12.487 353.42,12.72C353.313,12.96 353.197,13.167 353.07,13.34C352.943,13.513 352.833,13.553 352.74,13.46C352.647,13.393 352.6,13.3 352.6,13.18C352.6,13.067 352.627,12.933 352.68,12.78C352.74,12.627 352.77,12.49 352.77,12.37C352.77,12.21 352.73,12.053 352.65,11.9C352.57,11.747 352.437,11.67 352.25,11.67C351.803,11.67 351.227,11.87 350.52,12.27C349.82,12.663 349.1,13.197 348.36,13.87C347.62,14.537 346.957,15.267 346.37,16.06C345.79,16.86 345.38,17.657 345.14,18.45C345.073,18.637 345.027,18.82 345,19C344.98,19.173 344.97,19.343 344.97,19.51C344.97,20.023 345.14,20.393 345.48,20.62C345.82,20.84 346.237,20.95 346.73,20.95C347.263,20.95 347.813,20.867 348.38,20.7C349.973,20.233 351.267,19.59 352.26,18.77C353.26,17.95 354.263,16.897 355.27,15.61C355.363,15.49 355.443,15.443 355.51,15.47C355.583,15.49 355.643,15.5 355.69,15.5C355.763,15.527 355.8,15.597 355.8,15.71C355.8,15.757 355.787,15.817 355.76,15.89C355.733,15.957 355.71,16.013 355.69,16.06C354.683,17.42 353.57,18.61 352.35,19.63C351.13,20.65 349.653,21.313 347.92,21.62ZM355.37,21.69C355.183,21.69 355.137,21.607 355.23,21.44C355.277,21.3 355.4,20.95 355.6,20.39C355.8,19.823 356.04,19.143 356.32,18.35C356.6,17.55 356.893,16.733 357.2,15.9C357.507,15.073 357.787,14.33 358.04,13.67C357.88,13.883 357.63,14.19 357.29,14.59C356.95,14.983 356.593,15.403 356.22,15.85C355.84,16.297 355.487,16.683 355.16,17.01C355.093,17.083 355.047,17.12 355.02,17.12C354.953,17.12 354.92,17.05 354.92,16.91C354.92,16.623 354.99,16.363 355.13,16.13C355.643,15.477 356.14,14.863 356.62,14.29C357.1,13.717 357.54,13.17 357.94,12.65C357.707,12.51 357.59,12.337 357.59,12.13C357.59,11.797 357.753,11.63 358.08,11.63C358.22,11.63 358.327,11.653 358.4,11.7C358.42,11.727 358.443,11.74 358.47,11.74C358.49,11.74 358.513,11.763 358.54,11.81C358.653,11.643 358.753,11.49 358.84,11.35C358.92,11.21 358.993,11.06 359.06,10.9C359.153,10.687 359.347,10.28 359.64,9.68C359.933,9.087 360.303,8.38 360.75,7.56C361.197,6.74 361.707,5.89 362.28,5.01C362.853,4.13 363.473,3.31 364.14,2.55C364.813,1.79 365.507,1.173 366.22,0.7C366.933,0.233 367.663,0 368.41,0C368.503,0 368.6,0.007 368.7,0.02C368.793,0.027 368.887,0.043 368.98,0.07C369.567,0.19 369.977,0.393 370.21,0.68C370.443,0.973 370.56,1.32 370.56,1.72C370.56,2 370.507,2.3 370.4,2.62C370.293,2.933 370.147,3.243 369.96,3.55C369.493,4.37 368.873,5.197 368.1,6.03C367.327,6.863 366.463,7.683 365.51,8.49C364.563,9.297 363.617,10.08 362.67,10.84C361.717,11.607 360.83,12.33 360.01,13.01C359.45,14.203 359.017,15.263 358.71,16.19C358.41,17.11 358.177,17.853 358.01,18.42C358.27,18.093 358.657,17.623 359.17,17.01C359.683,16.403 360.27,15.747 360.93,15.04C361.583,14.34 362.263,13.667 362.97,13.02C363.67,12.38 364.337,11.853 364.97,11.44C365.603,11.033 366.143,10.83 366.59,10.83C367.15,10.83 367.43,11.12 367.43,11.7C367.43,12.267 367.23,12.89 366.83,13.57C366.43,14.25 366.103,14.823 365.85,15.29C365.523,15.97 365.26,16.62 365.06,17.24C364.86,17.86 364.737,18.37 364.69,18.77C364.663,18.863 364.65,18.95 364.65,19.03L364.65,19.3C364.65,20.233 364.98,20.7 365.64,20.7C365.987,20.7 366.453,20.49 367.04,20.07C367.627,19.65 368.227,19.147 368.84,18.56C369.447,17.973 370.003,17.403 370.51,16.85C371.01,16.303 371.353,15.89 371.54,15.61C371.613,15.537 371.697,15.5 371.79,15.5C371.883,15.5 371.953,15.537 372,15.61C372.047,15.677 372.047,15.77 372,15.89C371.767,16.283 371.403,16.78 370.91,17.38C370.417,17.98 369.867,18.577 369.26,19.17C368.647,19.77 368.05,20.28 367.47,20.7C367.163,20.933 366.77,21.14 366.29,21.32C365.81,21.493 365.333,21.58 364.86,21.58C364.487,21.58 364.123,21.487 363.77,21.3C363.423,21.113 363.167,20.763 363,20.25C362.933,20.037 362.9,19.743 362.9,19.37L362.9,19C362.9,18.867 362.91,18.73 362.93,18.59C363.023,17.843 363.277,17.053 363.69,16.22C364.097,15.387 364.477,14.643 364.83,13.99C364.923,13.803 365,13.64 365.06,13.5C365.12,13.36 365.15,13.243 365.15,13.15C365.15,12.957 365.067,12.86 364.9,12.86C364.733,12.86 364.477,12.967 364.13,13.18C363.777,13.393 363.307,13.757 362.72,14.27C362.207,14.717 361.663,15.297 361.09,16.01C360.51,16.723 359.947,17.457 359.4,18.21C358.847,18.957 358.367,19.6 357.96,20.14C357.547,20.68 357.26,20.997 357.1,21.09C356.98,21.163 356.71,21.28 356.29,21.44C355.863,21.607 355.557,21.69 355.37,21.69ZM360.68,11.42C361.62,10.787 362.64,9.997 363.74,9.05C364.84,8.103 365.877,7.083 366.85,5.99C367.823,4.903 368.567,3.867 369.08,2.88C369.36,2.34 369.5,1.897 369.5,1.55C369.5,1.15 369.327,0.95 368.98,0.95C368.813,0.95 368.623,0.99 368.41,1.07C368.203,1.15 367.96,1.297 367.68,1.51C366.107,2.73 364.78,4.177 363.7,5.85C362.627,7.53 361.62,9.387 360.68,11.42Z" style="fill:rgb(36,37,38);fill-rule:nonzero;"/>
                </g>
            </g>
        </g>
    </g>
</svg>
